<svg xmlns="http://www.w3.org/2000/svg" fill="none" viewBox="0 0 166 93"><g fill="#fff" clip-path="url(#clip0)"><path d="M88.438 24.21v11.716c0-2.92.004-5.839.004-8.759 0-.985 0-1.972-.004-2.957zm0 13.678v1.735h4.638l.251-.006c.09-.002.173 0 .248.006h.77v-1.735h-5.907zm0-13.678v11.716c0-2.92.004-5.839.004-8.759 0-.985 0-1.972-.004-2.957zm7.284 13.678v-.872h-1.377v2.607h1.893c.336-.071.832-.044 1.566 0h3.328c.337-.038.797-.021 1.429-.002.012 0 .022 0 .034.002h.634v-1.735h-7.507zm-7.284 0v1.735h4.638l.251-.006c.09-.002.173 0 .248.006h.77v-1.735h-5.907zm0-13.678v11.716c0-2.92.004-5.839.004-8.759 0-.985 0-1.972-.004-2.957zm7.284 13.678v-.872h-1.377v2.607h1.893c.336-.071.832-.044 1.566 0h3.328c.337-.038.797-.021 1.429-.002.012 0 .022 0 .034.002h.634v-1.735h-7.507zm-7.284 0v1.735h4.638l.251-.006c.09-.002.173 0 .248.006h.77v-1.735h-5.907zm0-13.678v11.716c0-2.92.004-5.839.004-8.759 0-.985 0-1.972-.004-2.957zm16.17 13.678v1.735h1.684l.05-.002c.088-.004.17-.002.244.002h5.639v-1.735h-7.617zm-8.886 0v-.872h-1.377v2.607h1.893c.336-.071.832-.044 1.566 0h3.328c.337-.038.797-.021 1.429-.002.012 0 .022 0 .034.002h.634v-1.735h-7.507zm-7.284 0v1.735h4.638l.251-.006c.09-.002.173 0 .248.006h.77v-1.735h-5.907zm0-13.678v11.716c0-2.92.004-5.839.004-8.759 0-.985 0-1.972-.004-2.957zm16.17 13.678v1.735h1.684l.05-.002c.088-.004.17-.002.244.002h5.639v-1.735h-7.617zm-8.886 0v-.872h-1.377v2.607h1.893c.336-.071.832-.044 1.566 0h3.328c.337-.038.797-.021 1.429-.002.012 0 .022 0 .034.002h.634v-1.735h-7.507zm-7.284 0v1.735h4.638l.251-.006c.09-.002.173 0 .248.006h.77v-1.735h-5.907zm0-13.678v11.716c0-2.92.004-5.839.004-8.759 0-.985 0-1.972-.004-2.957zm16.17 13.678v1.735h1.684l.05-.002c.088-.004.17-.002.244.002h5.639v-1.735h-7.617zm-8.886 0v-.872h-1.377v2.607h1.893c.336-.071.832-.044 1.566 0h3.328c.337-.038.797-.021 1.429-.002.012 0 .022 0 .034.002h.634v-1.735h-7.507zm-7.284 0v1.735h4.638l.251-.006c.09-.002.173 0 .248.006h.77v-1.735h-5.907zm0-13.678v11.716c0-2.92.004-5.839.004-8.759 0-.985 0-1.972-.004-2.957zm16.17 13.678v1.735h1.684l.05-.002c.088-.004.17-.002.244.002h5.639v-1.735h-7.617zm-8.886 0v-.872h-1.377v2.607h1.893c.336-.071.832-.044 1.566 0h3.328c.337-.038.797-.021 1.429-.002.012 0 .022 0 .034.002h.634v-1.735h-7.507zm-7.284 0v1.735h4.638l.251-.006c.09-.002.173 0 .248.006h.77v-1.735h-5.907zm0-13.678v11.716c0-2.92.004-5.839.004-8.759 0-.985 0-1.972-.004-2.957zm25.167 13.678v-.872h-1.38v.872h-7.617v1.735h1.684l.05-.002c.088-.004.17-.002.244.002h7.653c.092-.01.195-.01.31-.004l.09.004h4.678c.271-.011.596-.008.991 0h.916v-1.735h-7.619zm-17.883 0v-.872h-1.377v2.607h1.893c.336-.071.832-.044 1.566 0h3.328c.337-.038.797-.021 1.429-.002.012 0 .022 0 .034.002h.634v-1.735h-7.507zm-7.284 0v1.735h4.638l.251-.006c.09-.002.173 0 .248.006h.77v-1.735h-5.907zm0-13.678v11.716c0-2.92.004-5.839.004-8.759 0-.985 0-1.972-.004-2.957zm25.167 13.678v-.872h-1.38v.872h-7.617v1.735h1.684l.05-.002c.088-.004.17-.002.244.002h7.653c.092-.01.195-.01.31-.004l.09.004h4.678c.271-.011.596-.008.991 0h.916v-1.735h-7.619zm-17.883 0v-.872h-1.377v2.607h1.893c.336-.071.832-.044 1.566 0h3.328c.337-.038.797-.021 1.429-.002.012 0 .022 0 .034.002h.634v-1.735h-7.507zm-7.284 0v1.735h4.638l.251-.006c.09-.002.173 0 .248.006h.77v-1.735h-5.907zm0-13.678v11.716c0-2.92.004-5.839.004-8.759 0-.985 0-1.972-.004-2.957zm25.167 13.678v-.872h-1.38v.872h-7.617v1.735h1.684l.05-.002c.088-.004.17-.002.244.002h7.653c.092-.01.195-.01.31-.004l.09.004h4.678c.271-.011.596-.008.991 0h.916v-1.735h-7.619zm-17.883 0v-.872h-1.377v2.607h1.893c.336-.071.832-.044 1.566 0h3.328c.337-.038.797-.021 1.429-.002.012 0 .022 0 .034.002h.634v-1.735h-7.507zm-7.284 0v1.735h4.638l.251-.006c.09-.002.173 0 .248.006h.77v-1.735h-5.907zm0-13.678v11.716c0-2.92.004-5.839.004-8.759 0-.985 0-1.972-.004-2.957zm7.131 44.896l-.487-2.201-.284-.04-.53 2.173c-1.505-.765-1.566-4.9-.016-6.163l.481 1.974.258.01.589-1.932c1.517.983 1.528 5.07-.01 6.179zm.933-7.315c-.214-.423-.338-.929-.393-1.41a79.755 79.755 0 0 1-.387-4.564v-.005a129.69 129.69 0 0 1-.189-6.34h-1.188v-2.765c0 .922-.005 1.843-.015 2.764-.04 3.553-.173 7.105-.586 10.643-.077.654-.247 1.333-.53 1.913-1.337 2.742-1.536 5.45.027 8.17.113.197.21.431.233.656.296 2.995.725 5.986.83 8.99.142 4.013.03 8.035.034 12.055 0 .338.048.676.073.992 1.12.145 1.112.145 1.127-.93.088-6.316-.33-12.65.57-18.937.142-.983.158-2.055.557-2.916 1.31-2.839 1.225-5.564-.163-8.316zm17.103-23.903v-.872h-1.38v.872h-7.617v1.735h1.684l.05-.002c.088-.004.17-.002.244.002h7.653c.092-.01.195-.01.31-.004l.09.004h4.678c.271-.011.596-.008.991 0h.916v-1.735h-7.619zm-17.883 0v-.872h-1.377v2.607h1.893c.336-.071.832-.044 1.566 0h3.328c.337-.038.797-.021 1.429-.002.012 0 .022 0 .034.002h.634v-1.735h-7.507zM88.438 24.21v11.716c0-2.92.004-5.839.004-8.759 0-.985 0-1.972-.004-2.957zm25.167 13.678v-.872h-1.38v.872h-7.617v1.735h1.684l.05-.002c.088-.004.17-.002.244.002h7.653c.092-.01.195-.01.31-.004l.09.004h4.678c.271-.011.596-.008.991 0h.916v-1.735h-7.619zM88.438 24.21v11.716c0-2.92.004-5.839.004-8.759 0-.985 0-1.972-.004-2.957zm25.167 13.678v-.872h-1.38v2.607h2.014c.092-.01.195-.01.31-.004l.09.004h4.678c.271-.011.596-.008.991 0h.916v-1.735h-7.619zM88.438 24.21v11.716c0-2.92.004-5.839.004-8.759 0-.985 0-1.972-.004-2.957zm0 0v11.716c0-2.92.004-5.839.004-8.759 0-.985 0-1.972-.004-2.957zm0 0v11.716c0-2.92.004-5.839.004-8.759 0-.985 0-1.972-.004-2.957zm0 0v11.716c0-2.92.004-5.839.004-8.759 0-.985 0-1.972-.004-2.957zm0 0v11.716c0-2.92.004-5.839.004-8.759 0-.985 0-1.972-.004-2.957zm34.163 13.678v-.872h-1.377v2.607h8.997v-1.735h-7.62zM88.438 24.21v11.716c0-2.92.004-5.839.004-8.759 0-.985 0-1.972-.004-2.957zm34.163 13.678v-.872h-1.377v2.607h8.997v-1.735h-7.62zM88.438 24.21v11.716c0-2.92.004-5.839.004-8.759 0-.985 0-1.972-.004-2.957zm34.163 13.678v-.872h-1.377v2.607h8.997v-1.735h-7.62zM88.438 24.21v11.716c0-2.92.004-5.839.004-8.759 0-.985 0-1.972-.004-2.957zm34.163 13.678v-.872h-1.377v2.607h8.997v-1.735h-7.62zM88.438 24.21v11.716c0-2.92.004-5.839.004-8.759 0-.985 0-1.972-.004-2.957zm34.163 13.678v-.872h-1.377v2.607h8.997v-1.735h-7.62zM88.438 24.21v11.716c0-2.92.004-5.839.004-8.759 0-.985 0-1.972-.004-2.957zm77.381-13.785h-8.311c.322-.399.514-.633.704-.868 1.596-1.989 1.781-4.535.481-6.635-1.27-2.048-3.837-3.133-6.281-2.633-2.131.438-3.781 1.595-4.465 3.868-.664 2.207-.209 4.2 1.391 5.84.081.082.11.224.234.492h-8.016c-.231 1.536-.046 2.197.775 2.254 1.002.07 1.221.604 1.062 1.478-.411 2.255.31 3.72 2.48 4.26.564.14.738.568.733 1.196-.022 2.497-.017 4.993-.015 7.49h14.457c.003-2.387.003-4.774 0-7.16 0-.674.166-1.096.78-1.36.717-.308 1.387-.737 2.093-1.077.433-.21.617-.503.601-1.024a42.075 42.075 0 0 1 .01-3.015c.009-.23.18-.567.363-.657 1.099-.542 1.316-1.028.924-2.45zm-43.218 27.463v-.872h-1.377v2.607h8.997v-1.735h-7.62zM88.438 24.21v11.716c0-2.92.004-5.839.004-8.759 0-.985 0-1.972-.004-2.957zm34.163 13.678v-.872h-1.377v2.607h8.997v-1.735h-7.62zM88.438 24.21v11.716c0-2.92.004-5.839.004-8.759 0-.985 0-1.972-.004-2.957zm34.163 13.678v-.872h-1.377v2.607h8.997v-1.735h-7.62zM88.438 24.21v11.716c0-2.92.004-5.839.004-8.759 0-.985 0-1.972-.004-2.957zm34.163 13.678v-.872h-1.377v2.607h8.997v-1.735h-7.62zM88.438 24.21v11.716c0-2.92.004-5.839.004-8.759 0-.985 0-1.972-.004-2.957zm34.163 13.678v-.872h-1.377v2.607h8.997v-1.735h-7.62zm0 0v-.872h-1.377v2.607h8.997v-1.735h-7.62zM88.438 24.21v11.716c0-2.92.004-5.839.004-8.759 0-.985 0-1.972-.004-2.957zm-.026 12.806v2.607h.026v-2.607h-.026zm.026-12.806v11.716c0-2.92.004-5.839.004-8.759 0-.985 0-1.972-.004-2.957zm-.026 12.806v2.607h.026v-2.607h-.026zm.026-12.806v11.716c0-2.92.004-5.839.004-8.759 0-.985 0-1.972-.004-2.957zm-.026 12.806v2.607h.026v-2.607h-.026zm.026-12.806v11.716c0-2.92.004-5.839.004-8.759 0-.985 0-1.972-.004-2.957zm-.026 12.806v2.607h.026v-2.607h-.026zm43.188.872v-1.352c-.1-.295-.101-.764-.101-1.51 0-1.802-.002-3.603.001-5.405 0-.315.028-.63.048-1.074l.052.016c.3.09.526.128.719.232.145.079.293.156.439.235l.01.005.002.002.028.014.042.023c.049.026.121.063.212.113.052.029.11.058.173.092l.194.105.101.055.214.115c.506.266 1.011.539 1.517.81.292.156.586.313.878.473a285.878 285.878 0 0 1 2.693 1.476c.034.018.065.04.097.069.086.07.166.167.232.277.025.04.048.085.068.127a.894.894 0 0 1 .091.328c.059 1.06.01 2.127.034 3.188.004.242-.034.42-.125.537v1.049H131.6zm8.976 25.067c1.523.893 1.528 5.052-.019 6.14l-.491-2.202a10.563 10.563 0 0 0-.286-.034c-.172.726-.347 1.451-.521 2.183-1.512-.769-1.575-4.87-.027-6.172l.647 2.011.253-.02.444-1.906zm-9.001 6.158l-.526-2.265a12.595 12.595 0 0 0-.259-.025c-.181.747-.362 1.494-.546 2.263-1.525-1.069-1.527-5.107.016-6.193l.548 1.9c.072.008.143.02.213.03l.541-1.895c1.52 1.012 1.542 5.037.013 6.185zm-9.024-6.15c1.524.784 1.581 4.884.029 6.166a949.65 949.65 0 0 1-.524-2.274 11.24 11.24 0 0 1-.258-.028l-.546 2.266c-1.51-1.078-1.54-4.857-.028-6.228l.614 1.954c.063.005.126.01.187.013.176-.62.351-1.243.526-1.868zm-8.986-.001c1.494.842 1.573 4.777.025 6.177l-.556-2.316-.257.006-.525 2.248c-1.489-1-1.538-4.825-.033-6.21l.523 1.973.234.03.589-1.908zm-19.22-25.074h-5.907v-1.494c-.03-.143 0-.312 0-.468 0-2.92.004-5.839.004-8.759 0-.985 0-1.972-.004-2.957 0-.986-.002-1.97-.007-2.954 0-.987-.003-1.975-.008-2.961-.003-.801.17-1.103.974-1.007 1.401.168 2.812.24 4.22.319.504.028.728.191.728.78v.007c-.009 2.924-.012 5.85-.012 8.773 0 3.042.005 6.085.012 9.126v1.595zm52.387-.872v.872h-6.135v-1.072a.451.451 0 0 1-.097-.233c-.019-.972-.013-1.947-.011-3.166v-.296l.108.064v-6.018h.761a90.9 90.9 0 0 0-.761-.432 111.057 111.057 0 0 0-10.376-5.17c-14.112-6.143-29.007-9.134-44.624-9.527-.021.421-.048.68-.048.938v14.191c0 3.284 0 6.567.002 9.849a8981.377 8981.377 0 0 0 0 12.456l.001 18.746.003 23.03c.002 2.014-.235 1.707 1.632 1.73 1.25.016 1.25.002 1.25-1.334l.001-23.426.002-18.747v-8.443c0-.02 0-.039-.002-.059-.003-.122-.015-.248-.018-.37a1.303 1.303 0 0 1 .018-.268.671.671 0 0 1 .023-.093c.073-.224.288-.396.44-.589.166.18.415.333.475.548.035.127.044.262.044.402 0 .186-.017.38-.017.565v8.307c0 14.074 0 28.148.003 42.221 0 .413.048.827.073 1.24l.343.022c.037-.39.103-.78.105-1.168.003-14.103.003-28.21.001-42.315v-8.567c0-.1-.008-.204-.01-.305a1.815 1.815 0 0 1 .002-.338c.007-.05.017-.1.033-.147.067-.188.304-.426.467-.427.157-.002.383.239.46.428.056.14.043.314.03.484-.005.073-.01.146-.01.216v8.657c0 14.105 0 28.209.003 42.314 0 .383.055.767.084 1.15l.326.02c.04-.36.112-.72.112-1.08.005-14.133.005-28.271.004-42.405v-7.855c0-.425 0-.757.018-1.017.004-.059.008-.111.015-.161.004-.025.005-.05.01-.073.004-.023.007-.046.012-.067a.799.799 0 0 1 .026-.12c.005-.02.012-.04.018-.059a.288.288 0 0 1 .02-.051.523.523 0 0 1 .088-.151.461.461 0 0 1 .133-.115.615.615 0 0 1 .176-.078 2.025 2.025 0 0 1 .198-.044 4.012 4.012 0 0 1 .312-.034l.109-.007.078-.004a26.601 26.601 0 0 1 .685-.018c.09-.002.173 0 .248.006.548.042.74.301.77.893v-.893h1.377v.358c.103-.197.264-.305.516-.358.336-.071.832-.044 1.566 0l.144.008c.508.032.697.243.669.755a2.732 2.732 0 0 0-.005.163c0 .016 0 .034-.002.05 0 .167.007.332.007.498l.001 8.374c0 14.081.002 28.16.007 42.24 0 .41.06.819.091 1.228.107.002.215.004.32.004.034-.402.095-.805.095-1.207.004-14.089.004-28.177.013-42.265l.007-8.617c0-.074.01-.163.025-.255a3.516 3.516 0 0 1 .2-.68c.007-.018.015-.034.022-.048a.173.173 0 0 1 .017-.034.11.11 0 0 1 .017-.032.235.235 0 0 1 .015-.029c.002-.006.008-.012.011-.017l.012-.016c.002-.002.003-.005.005-.005a.025.025 0 0 1 .01-.01c.001-.003.003-.004.005-.004a.024.024 0 0 1 .013-.006h.002a.767.767 0 0 1 .224.06l.043.023a.347.347 0 0 1 .119.117c.01.017.018.034.027.052l.02.057v.001a.697.697 0 0 1 .018.123c.005.11-.012.228-.03.347l-.015.101c-.002.005-.003.01-.003.016l-.01.07a1.14 1.14 0 0 0-.012.151c.004 2.878.005 5.758.007 8.636.012 14.082.01 28.163.01 42.245v1.093c.106-.002.214-.002.32-.002V42.047c0-.472 0-.853.017-1.163.001-.051.005-.1.008-.148a4.89 4.89 0 0 1 .011-.137 2.073 2.073 0 0 1 .102-.48.122.122 0 0 1 .015-.037.57.57 0 0 1 .038-.078c.011-.023.025-.043.038-.062a.603.603 0 0 1 .193-.18l.035-.019a.742.742 0 0 1 .074-.033l.017-.008.027-.009c.003-.003.008-.003.011-.003a.22.22 0 0 1 .052-.016.636.636 0 0 1 .066-.018.568.568 0 0 1 .084-.015.585.585 0 0 1 .059-.01.805.805 0 0 1 .062-.008c.337-.038.797-.021 1.429-.002.012 0 .022 0 .034.002.33.016.529.094.634.292v-2.027h-7.507v-1.042c-.121-.177-.172-.505-.174-.743-.015-2.978-.013-5.957-.011-8.936v-1.432c0-2.303.024-4.609-.012-6.912-.007-.374.051-.615.197-.745.138-.125.354-.152.67-.102 2.079.327 4.158.641 6.241.932.312.042.498.147.596.345.065.13.089.298.089.517-.006 2.465-.008 4.93-.008 7.397h1.192c.005-2.307.006-4.616-.013-6.923-.004-.314.031-.534.119-.674.131-.212.382-.24.805-.134 2.071.522 4.149 1.019 6.232 1.493.302.07.484.186.58.387.067.133.094.303.094.519-.006 1.777-.009 3.555-.01 5.332h1.199c-.001-1.27-.001-2.541-.003-3.811v-2.1l.1.035c2.604.944 4.975 1.79 7.33 2.686.111.043.221.213.289.4.048.128.08.265.08.373.004.806.008 1.613.01 2.417h1.194v-2.68l.093.038c1.71.698 3.223 1.313 4.732 1.93.207.085.413.173.612.273.336.164.727.293 1.094.44.476.187.911.405 1.133.768.019.029.035.06.049.09.326.661.096 1.716.101 2.586.012 1.859-.013 3.72.012 5.578.001.255-.03.45-.113.585v1.113h-7.62v-.872h-1.377v.872h-7.619v-.872h-1.38v.872h-7.617v1.908c.184-.194.63-.14 1.684-.173l.05-.002a2.712 2.712 0 0 1 .36.012l.083.013.007.001a.195.195 0 0 1 .046.011.58.58 0 0 1 .121.037c.014.006.029.01.042.018.017.007.031.016.046.025a.326.326 0 0 1 .035.023c.017.01.032.023.047.035a.516.516 0 0 1 .133.169v.001l.015.03c.011.022.019.045.028.068.01.025.018.05.024.078.004.01.006.021.009.032.007.025.012.051.017.078.004.026.008.054.011.085.003.023.007.046.008.07a2.248 2.248 0 0 1 .014.277l.001.089a20710.077 20710.077 0 0 0-.006 51.146c0 .342.207.682.318 1.024.078-.342.226-.686.226-1.028.008-14.148.007-28.295.017-42.444 0-2.872.001-5.742.005-8.615 0-.059-.007-.122-.017-.19a1.56 1.56 0 0 0-.01-.067c-.015-.099-.033-.202-.04-.301a1.127 1.127 0 0 1 .002-.165c.003-.028.008-.055.013-.081a.361.361 0 0 1 .029-.077.324.324 0 0 1 .068-.099.517.517 0 0 1 .193-.117l.042-.012a.725.725 0 0 1 .095-.022h.002c.003 0 .006.002.009.006a.26.26 0 0 1 .03.045l.022.045c.003.009.008.018.011.029.005.008.009.02.014.03a3.522 3.522 0 0 1 .054.15c.005.016.012.032.017.05a3.56 3.56 0 0 1 .103.368c.01.043.018.087.026.13.002.007.004.014.004.021l.012.071v.003a1.316 1.316 0 0 1 .018.206c.003 2.864.005 5.729.005 8.592.01 14.097.008 28.194.02 42.29.001.39.177.78.27 1.171.096-.386.274-.772.274-1.16.012-14.1.013-28.2.013-42.3l-.001-8.568.003-.305c.001-.105 0-.21-.007-.316-.026-.44.128-.655.573-.637.579.02 1.163.026 1.741-.018.048-.003.093-.005.136-.005.279 0 .456.081.552.267.065.126.095.302.095.534v.175c-.001 2.958.027 5.915-.01 8.873-.013 1.274-.04 2.546-.085 3.82a93.806 93.806 0 0 1-.496 7.14 4.419 4.419 0 0 1-.453 1.488c-1.404 2.745-1.631 5.476-.071 8.249.19.337.275.767.325 1.168.565 4.513.926 9.039.794 13.602-.069 2.332-.014 4.667-.011 7.003.002.315.03.63.045.925 1.102.205 1.14.177 1.147-.868.043-6.672-.282-13.358.707-19.99.09-.607.09-1.298.372-1.79 1.572-2.737 1.368-5.426.043-8.173-.292-.606-.47-1.315-.549-1.995a84.758 84.758 0 0 1-.473-6.401 142.075 142.075 0 0 1-.098-4.178c-.033-2.905-.005-5.813-.022-8.717 0-.055 0-.107.002-.156.008-.27.041-.473.118-.624.109-.223.307-.328.634-.352.092-.01.195-.01.31-.004l.09.004.152.005.141.003c.08.004.154.006.224.008l.073.002c.045 0 .087.001.127.003.02 0 .039 0 .058.002a3.689 3.689 0 0 1 .381.03.52.52 0 0 1 .099.021.295.295 0 0 1 .041.014c.015.004.026.01.038.016a.342.342 0 0 1 .081.055.167.167 0 0 1 .022.023.21.21 0 0 1 .031.044c.005.01.012.018.015.029.002.005.005.01.007.018a.096.096 0 0 1 .01.026l.008.027a1.304 1.304 0 0 1 .035.282c.002.017.002.035.002.054.003.09.001.195 0 .314 0 .053-.002.11-.004.169l-.001.09c-.004.156-.005.331-.005.53l.001 8.084c.004 14.087 0 28.177.005 42.264 0 .404.06.808.093 1.212.118 0 .236.002.354.004.034-.4.1-.8.101-1.198.003-14.093.003-28.188.003-42.283v-8.333a3.26 3.26 0 0 0-.003-.14c-.003-.133-.011-.266-.013-.399 0-.034 0-.07.002-.103l.001-.051c0-.018.002-.034.003-.05a1.675 1.675 0 0 1 .033-.227c.049-.196.266-.465.424-.48.147-.012.383.238.461.427.058.14.046.312.035.484-.005.073-.01.147-.01.218v23.667c0 9.13 0 18.26.005 27.39 0 .337.061.674.095 1.01.089-.007.177-.016.267-.022V42.185c0-.305 0-.574.005-.813l.001-.101a6.1 6.1 0 0 1 .042-.672l.005-.037a.784.784 0 0 1 .015-.1l.025-.117c0-.001 0-.003.002-.005a1.046 1.046 0 0 1 .157-.365l.005-.007a.233.233 0 0 1 .028-.034l.03-.032a.163.163 0 0 1 .032-.03.322.322 0 0 1 .035-.028.262.262 0 0 1 .047-.033.643.643 0 0 1 .165-.08 1.663 1.663 0 0 1 .319-.076c.023-.004.046-.008.071-.01l.077-.008a6.56 6.56 0 0 1 .225-.014c.271-.011.596-.008.991 0l.232.005c.364.007.575.087.684.278.081.138.109.333.109.603v.09c-.011 2.958.02 5.917-.013 8.873a153.152 153.152 0 0 1-.096 4.063 87.375 87.375 0 0 1-.476 6.537 6.387 6.387 0 0 1-.553 1.999c-1.268 2.638-1.339 5.256-.061 7.903.126.259.291.528.321.806.301 2.876.728 5.748.825 8.634.142 4.19.039 8.39.042 12.586.001 1.06.128 1.147 1.186.794v-1.292c.022-6.671-.257-13.357.764-19.984.066-.433.098-.913.3-1.27 1.614-2.828 1.399-5.61-.071-8.4-.185-.35-.351-.76-.372-1.153-.189-3.223-.388-6.446-.528-9.673a196.81 196.81 0 0 1-.063-1.55l-.013-.36c-.09-2.596-.017-5.2-.017-7.8 0-.282 0-.518.008-.713.009-.257.032-.444.085-.583.147-.385.521-.383 1.494-.38.242.003.44.003.601.013.027 0 .053.004.078.005a1.235 1.235 0 0 1 .304.06c.028.011.054.024.078.041a.288.288 0 0 1 .03.021l.028.024.004.003a.126.126 0 0 1 .022.023.229.229 0 0 1 .035.048c.006.01.012.02.016.03.009.014.016.03.022.048.007.014.012.03.017.044a1.533 1.533 0 0 1 .03.131l.011.09a4.456 4.456 0 0 1 .019.382c.003.124.003.264.003.422v8.45l.006 42.255c0 .405.057.811.087 1.217l.366.016c.034-.395.099-.79.099-1.185.003-14.102.004-28.202.004-42.303v-8.666c0-.068-.003-.137-.006-.206v-.004c-.003-.106-.009-.212-.002-.315 0-.01 0-.02.002-.028l.003-.027a.757.757 0 0 1 .022-.126c.041-.16.211-.28.322-.416.121.131.31.241.348.395a1.33 1.33 0 0 1 .033.23c.004.05.005.1.005.151 0 .046 0 .094-.003.14-.002.092-.005.183-.005.273 0 2.867.002 5.732 0 8.6.002 3.574.002 7.15.002 10.724 0 10.549-.002 21.098.003 31.646.002.373.063.747.096 1.118l.309-.001c.036-.342.105-.686.105-1.03.003-14.15.003-28.304.001-42.458v-7.713c0-.491 0-.868.025-1.159a1.684 1.684 0 0 1 .013-.128 1.586 1.586 0 0 1 .073-.338l.013-.034a.91.91 0 0 1 .07-.133c.012-.016.024-.033.037-.048l.005-.005a.138.138 0 0 1 .02-.023c.007-.007.013-.014.021-.02a.48.48 0 0 1 .1-.074c.022-.012.043-.024.066-.035a.866.866 0 0 1 .117-.043c.067-.02.144-.035.23-.048.075-.008.155-.017.243-.023a3.757 3.757 0 0 1 .285-.01c.035-.002.068-.002.103-.002.179-.002.381-.002.611 0 .604.004.876.004.999.199.088.136.101.368.102.765.002.064.002.133.002.206.009 2.89.035 5.778-.003 8.666a152.416 152.416 0 0 1-.101 4.058 96.656 96.656 0 0 1-.482 6.75 5.047 5.047 0 0 1-.476 1.664c-1.336 2.692-1.414 5.345.04 8.02.227.417.373.925.423 1.406.158 1.527.322 3.058.355 4.593.111 5.195.168 10.393.244 15.588.004.296-.07.624.029.877.087.227.36.507.555.51.193.004.502-.277.56-.494.094-.356.03-.76.03-1.144.011-6.702-.239-13.417.81-20.07.058-.37.137-.766.313-1.08 1.55-2.739 1.305-5.447-.03-8.178a5.428 5.428 0 0 1-.503-1.734c-.25-2.2-.401-4.4-.489-6.605a137.373 137.373 0 0 1-.103-4.16c-.032-2.666-.007-5.333.005-8 .002-.355-.003-.64-.007-.873-.001-.416.01-.654.105-.788.166-.236.584-.16 1.625-.174l.155-.002h.225a2.403 2.403 0 0 1 .382.029c.014.001.027.005.041.008a.727.727 0 0 1 .076.023c.023.01.045.02.065.032.01.005.02.013.028.02a.312.312 0 0 1 .05.044c.011.014.023.028.033.044.008.014.017.029.023.043.009.018.015.035.022.055.006.02.013.04.018.062a2.02 2.02 0 0 1 .04.38c.004.068.005.142.005.224.002.09.002.19.002.298v8.575c.001 14.101.001 28.203.005 42.305 0 .385.054.767.083 1.152.112.007.224.012.337.017.034-.388.101-.777.101-1.167.005-14.102.005-28.206.006-42.307v-8.398c0-.156-.016-.32-.018-.475a1.367 1.367 0 0 1 .028-.342c0-.002 0-.003.002-.005a.303.303 0 0 1 .015-.057c.07-.214.317-.363.485-.54.149.166.366.308.429.504.044.135.045.286.039.44-.004.117-.014.237-.014.353v19.59c0 10.43-.002 20.86.006 31.292 0 .372.066.746.1 1.12l.323-.004c.031-.402.093-.806.093-1.212.004-14.088-.002-28.177.008-42.267 0-2.546.002-5.092.005-7.639 0-.528-.02-.93-.032-1.233-.003-.138-.007-.257-.003-.358a2.444 2.444 0 0 1 .011-.18l.011-.056a.482.482 0 0 1 .028-.1c.006-.017.014-.032.021-.047a.307.307 0 0 1 .083-.097l.028-.02a.204.204 0 0 1 .03-.016l.028-.014a.215.215 0 0 1 .04-.014.643.643 0 0 1 .086-.023 1.4 1.4 0 0 1 .226-.027c.02-.001.042-.003.064-.003.033-.002.066-.003.101-.003.24-.008.556-.002.965-.006.133 0 .276-.004.429-.007.35-.01.562.062.68.246.091.138.128.344.128.627v.098c0 2.96.027 5.915-.015 8.873a150.2 150.2 0 0 1-.113 4.245 91.968 91.968 0 0 1-.478 6.435 5.855 5.855 0 0 1-.514 1.828c-1.315 2.738-1.373 5.416.141 8.098.23.408.342.942.367 1.425.218 4.393.444 8.786.59 13.182.08 2.419.014 4.845.014 7.267v.954h1.137V91.7c.011-6.674-.24-13.36.761-19.988.081-.547.146-1.146.404-1.6 1.578-2.783 1.457-5.542.056-8.338a3.982 3.982 0 0 1-.412-1.32c-.262-2.348-.609-4.694-.688-7.05a184.362 184.362 0 0 1-.088-3.934c-.033-2.645-.025-5.293-.027-7.938 0-.385-.012-.691-.02-.934-.01-.466-.003-.702.135-.824.19-.167.629-.12 1.603-.152l.099-.004a1.692 1.692 0 0 1 .306.014.696.696 0 0 1 .29.103.538.538 0 0 1 .219.326c.005.018.01.034.013.052.006.022.01.045.015.07a2.718 2.718 0 0 1 .027.415v.007c-.027 2.956-.013 5.912-.012 8.865.002.325.002.65.002.973 0 13.771-.002 27.54.005 41.308 0 .399.066.8.101 1.198l.352-.005c.032-.404.093-.81.093-1.214.003-14.086.003-28.174.013-42.26.002-2.874.003-5.748.007-8.622a2.65 2.65 0 0 0-.018-.218l-.005-.032c-.004-.025-.009-.05-.012-.076l-.015-.11a1.408 1.408 0 0 1-.012-.36l.009-.048a.231.231 0 0 1 .015-.051.136.136 0 0 1 .015-.04l.006-.015a.12.12 0 0 1 .022-.037.311.311 0 0 1 .09-.092c.011-.01.023-.016.034-.023a.479.479 0 0 1 .115-.046l.025-.006c.017-.005.035-.007.053-.01a.635.635 0 0 1 .126-.01c.464-.011.572.215.572.492a.94.94 0 0 1-.005.106c-.008.108-.028.221-.044.326a1.768 1.768 0 0 0-.032.284c.005 2.861.008 5.725.01 8.588.01 11.556.008 23.113.008 34.67 0 2.63-.004 5.26.007 7.89.002.306.09.614.139.923l.294-.015c.029-.412.081-.825.081-1.237.004-14.077.004-28.153.004-42.23v-8.297c0-.188-.027-.386-.028-.576 0-.07.003-.136.011-.202a.824.824 0 0 1 .021-.096l.001-.009a.508.508 0 0 1 .027-.081c.096-.239.386-.479.634-.544.365-.098.733-.002.713.565-.003.123-.005.245-.003.367l.001.073c.002.149.004.297.004.446v8.353c.003 14.149.003 28.293-.015 42.44-.002.85.211 1.096 1.015 1.089 4.095-.044 8.189-.046 12.285 0 .828.008.998-.278.998-1.106-.004-7.092.037-14.182.059-21.273.023-7.05.043-14.1.063-21.15.01-3.231.018-6.464.027-9.696v-.152l.006-2.607h-14.299zm-58.32 0v2.607h.026v-2.607h-.026zm.026-12.806v11.716c0-2.92.004-5.839.004-8.759 0-.985 0-1.972-.004-2.957zm-.026 12.806v2.607h.026v-2.607h-.026zm.026-12.806v11.716c0-2.92.004-5.839.004-8.759 0-.985 0-1.972-.004-2.957zm-.026 12.806v2.607h.026v-2.607h-.026zm.026-12.806v11.716c0-2.92.004-5.839.004-8.759 0-.985 0-1.972-.004-2.957zm-.026 12.806v2.607h.026v-2.607h-.026zm.026-12.806v11.716c0-2.92.004-5.839.004-8.759 0-.985 0-1.972-.004-2.957zm0 0v11.716c0-2.92.004-5.839.004-8.759 0-.985 0-1.972-.004-2.957zm34.163 13.678v-.872h-1.377v2.607h8.997v-1.735h-7.62zm0 0v-.872h-1.377v2.607h8.997v-1.735h-7.62zM88.438 24.21v11.716c0-2.92.004-5.839.004-8.759 0-.985 0-1.972-.004-2.957zm34.163 13.678v-.872h-1.377v2.607h8.997v-1.735h-7.62zM88.438 24.21v11.716c0-2.92.004-5.839.004-8.759 0-.985 0-1.972-.004-2.957zm34.163 13.678v-.872h-1.377v2.607h8.997v-1.735h-7.62zM88.438 24.21v11.716c0-2.92.004-5.839.004-8.759 0-.985 0-1.972-.004-2.957zm34.163 13.678v-.872h-1.377v2.607h8.997v-1.735h-7.62zM88.438 24.21v11.716c0-2.92.004-5.839.004-8.759 0-.985 0-1.972-.004-2.957zm34.163 13.678v-.872h-1.377v2.607h8.997v-1.735h-7.62zM88.438 24.21v11.716c0-2.92.004-5.839.004-8.759 0-.985 0-1.972-.004-2.957zm34.163 13.678v-.872h-1.377v2.607h8.997v-1.735h-7.62zM88.438 24.21v11.716c0-2.92.004-5.839.004-8.759 0-.985 0-1.972-.004-2.957zm34.163 13.678v-.872h-1.377v2.607h8.997v-1.735h-7.62zM88.438 24.21v11.716c0-2.92.004-5.839.004-8.759 0-.985 0-1.972-.004-2.957zm34.163 13.678v-.872h-1.377v2.607h8.997v-1.735h-7.62zM88.438 24.21v11.716c0-2.92.004-5.839.004-8.759 0-.985 0-1.972-.004-2.957zm34.163 13.678v-.872h-1.377v2.607h8.997v-1.735h-7.62zM88.438 24.21v11.716c0-2.92.004-5.839.004-8.759 0-.985 0-1.972-.004-2.957zm34.163 13.678v-.872h-1.377v2.607h8.997v-1.735h-7.62zM88.438 24.21v11.716c0-2.92.004-5.839.004-8.759 0-.985 0-1.972-.004-2.957zm34.163 13.678v-.872h-1.377v2.607h8.997v-1.735h-7.62zM88.438 24.21v11.716c0-2.92.004-5.839.004-8.759 0-.985 0-1.972-.004-2.957zm0 0v11.716c0-2.92.004-5.839.004-8.759 0-.985 0-1.972-.004-2.957zm0 0v11.716c0-2.92.004-5.839.004-8.759 0-.985 0-1.972-.004-2.957zm0 0v11.716c0-2.92.004-5.839.004-8.759 0-.985 0-1.972-.004-2.957zm25.167 13.678v-.872h-1.38v2.607h2.014c.092-.01.195-.01.31-.004l.09.004h4.678c.271-.011.596-.008.991 0h.916v-1.735h-7.619zM88.438 24.21v11.716c0-2.92.004-5.839.004-8.759 0-.985 0-1.972-.004-2.957zm25.167 13.678v-.872h-1.38v.872h-7.617v1.735h1.684l.05-.002c.088-.004.17-.002.244.002h7.653c.092-.01.195-.01.31-.004l.09.004h4.678c.271-.011.596-.008.991 0h.916v-1.735h-7.619zM88.438 24.21v11.716c0-2.92.004-5.839.004-8.759 0-.985 0-1.972-.004-2.957zm25.167 13.678v-.872h-1.38v.872h-7.617v1.735h1.684l.05-.002c.088-.004.17-.002.244.002h7.653c.092-.01.195-.01.31-.004l.09.004h4.678c.271-.011.596-.008.991 0h.916v-1.735h-7.619zM88.438 24.21v11.716c0-2.92.004-5.839.004-8.759 0-.985 0-1.972-.004-2.957zm7.284 13.678v-.872h-1.377v2.607h1.893c.336-.071.832-.044 1.566 0h3.328c.337-.038.797-.021 1.429-.002.012 0 .022 0 .034.002h.634v-1.735h-7.507zm17.883 0v-.872h-1.38v.872h-7.617v1.735h1.684l.05-.002c.088-.004.17-.002.244.002h7.653c.092-.01.195-.01.31-.004l.09.004h4.678c.271-.011.596-.008.991 0h.916v-1.735h-7.619zM88.438 24.21v11.716c0-2.92.004-5.839.004-8.759 0-.985 0-1.972-.004-2.957zm0 13.678v1.735h4.638l.251-.006c.09-.002.173 0 .248.006h.77v-1.735h-5.907zm7.284 0v-.872h-1.377v2.607h1.893c.336-.071.832-.044 1.566 0h3.328c.337-.038.797-.021 1.429-.002.012 0 .022 0 .034.002h.634v-1.735h-7.507zm17.883 0v-.872h-1.38v.872h-7.617v1.735h1.684l.05-.002c.088-.004.17-.002.244.002h7.653c.092-.01.195-.01.31-.004l.09.004h4.678c.271-.011.596-.008.991 0h.916v-1.735h-7.619zM88.438 24.21v11.716c0-2.92.004-5.839.004-8.759 0-.985 0-1.972-.004-2.957zm0 13.678v1.735h4.638l.251-.006c.09-.002.173 0 .248.006h.77v-1.735h-5.907zm7.284 0v-.872h-1.377v2.607h1.893c.336-.071.832-.044 1.566 0h3.328c.337-.038.797-.021 1.429-.002.012 0 .022 0 .034.002h.634v-1.735h-7.507zm17.883 0v-.872h-1.38v.872h-7.617v1.735h1.684l.05-.002c.088-.004.17-.002.244.002h7.653c.092-.01.195-.01.31-.004l.09.004h4.678c.271-.011.596-.008.991 0h.916v-1.735h-7.619zM88.438 24.21v11.716c0-2.92.004-5.839.004-8.759 0-.985 0-1.972-.004-2.957zm0 13.678v1.735h4.638l.251-.006c.09-.002.173 0 .248.006h.77v-1.735h-5.907zm7.284 0v-.872h-1.377v2.607h1.893c.336-.071.832-.044 1.566 0h3.328c.337-.038.797-.021 1.429-.002.012 0 .022 0 .034.002h.634v-1.735h-7.507zm17.883 0v-.872h-1.38v.872h-7.617v1.735h1.684l.05-.002c.088-.004.17-.002.244.002h7.653c.092-.01.195-.01.31-.004l.09.004h4.678c.271-.011.596-.008.991 0h.916v-1.735h-7.619zM88.438 24.21v11.716c0-2.92.004-5.839.004-8.759 0-.985 0-1.972-.004-2.957zm0 13.678v1.735h4.638l.251-.006c.09-.002.173 0 .248.006h.77v-1.735h-5.907zm7.284 0v-.872h-1.377v2.607h1.893c.336-.071.832-.044 1.566 0h3.328c.337-.038.797-.021 1.429-.002.012 0 .022 0 .034.002h.634v-1.735h-7.507zm8.886 0v1.735h1.684l.05-.002c.088-.004.17-.002.244.002h5.639v-1.735h-7.617zM88.438 24.21v11.716c0-2.92.004-5.839.004-8.759 0-.985 0-1.972-.004-2.957zm0 13.678v1.735h4.638l.251-.006c.09-.002.173 0 .248.006h.77v-1.735h-5.907zm7.284 0v-.872h-1.377v2.607h1.893c.336-.071.832-.044 1.566 0h3.328c.337-.038.797-.021 1.429-.002.012 0 .022 0 .034.002h.634v-1.735h-7.507zm8.886 0v1.735h1.684l.05-.002c.088-.004.17-.002.244.002h5.639v-1.735h-7.617zM88.438 24.21v11.716c0-2.92.004-5.839.004-8.759 0-.985 0-1.972-.004-2.957zm0 13.678v1.735h4.638l.251-.006c.09-.002.173 0 .248.006h.77v-1.735h-5.907zm7.284 0v-.872h-1.377v2.607h1.893c.336-.071.832-.044 1.566 0h3.328c.337-.038.797-.021 1.429-.002.012 0 .022 0 .034.002h.634v-1.735h-7.507zm8.886 0v1.735h1.684l.05-.002c.088-.004.17-.002.244.002h5.639v-1.735h-7.617zM88.438 24.21v11.716c0-2.92.004-5.839.004-8.759 0-.985 0-1.972-.004-2.957zm0 13.678v1.735h4.638l.251-.006c.09-.002.173 0 .248.006h.77v-1.735h-5.907zm7.284 0v-.872h-1.377v2.607h1.893c.336-.071.832-.044 1.566 0h3.328c.337-.038.797-.021 1.429-.002.012 0 .022 0 .034.002h.634v-1.735h-7.507zM88.438 24.21v11.716c0-2.92.004-5.839.004-8.759 0-.985 0-1.972-.004-2.957zm0 13.678v1.735h4.638l.251-.006c.09-.002.173 0 .248.006h.77v-1.735h-5.907zm7.284 0v-.872h-1.377v2.607h1.893c.336-.071.832-.044 1.566 0h3.328c.337-.038.797-.021 1.429-.002.012 0 .022 0 .034.002h.634v-1.735h-7.507zM88.438 24.21v11.716c0-2.92.004-5.839.004-8.759 0-.985 0-1.972-.004-2.957zm0 13.678v1.735h4.638l.251-.006c.09-.002.173 0 .248.006h.77v-1.735h-5.907zm0-13.678v11.716c0-2.92.004-5.839.004-8.759 0-.985 0-1.972-.004-2.957zm0 13.678v1.735h4.638l.251-.006c.09-.002.173 0 .248.006h.77v-1.735h-5.907zm7.284 0v-.872h-1.377v2.607h1.893c.336-.071.832-.044 1.566 0h3.328c.337-.038.797-.021 1.429-.002.012 0 .022 0 .034.002h.634v-1.735h-7.507z"/><path d="M104.571 69.083l-.509-2.186c-.09-.012-.179-.022-.271-.035l-.524 2.18c-1.511-.819-1.569-4.886-.04-6.15l.533 1.954.229.01.591-1.93c1.532 1.01 1.535 5.127-.009 6.157zm.948-7.22c-.229-.448-.363-.985-.42-1.497a94.046 94.046 0 0 1-.491-6.615V39.623h-1.379v13.699a88.635 88.635 0 0 1-.478 6.786c-.075.651-.249 1.33-.533 1.91-1.339 2.737-1.557 5.442.015 8.167.153.264.24.599.275.91.243 2.171.586 4.34.664 6.518.136 3.748.107 7.501.14 11.252.011 1.152-.012 2.304.019 3.456.007.214.153.532.314.606.194.092.604.069.689-.068.148-.242.156-.606.158-.919.03-6.76-.254-13.535.763-20.252.081-.546.159-1.126.39-1.606 1.335-2.775 1.276-5.493-.126-8.219z"/><path d="M87.47 90.427v2.548h62.624v-2.548H87.469zM93.076 39.623c-1.65.037-1.647.088-1.647 1.993v7.855h-.53v-8.656c0-.235.06-.5-.02-.7-.076-.19-.302-.43-.46-.428-.162.001-.4.239-.466.427-.08.233-.025.524-.025.79v8.567h-.525v-8.307c0-.324.056-.668-.027-.967-.06-.215-.309-.367-.474-.548-.153.193-.368.365-.44.589a.675.675 0 0 0-.024.093v.638c.002.02.002.04.002.059v8.444h-2.89v-9.85h7.526zM94.345 39.623v.893c-.03-.592-.222-.85-.77-.893h.77zM94.33 49.471c.01-.921.014-1.842.014-2.764v2.764h-.014zM94.345 46.707v-3.819c0 1.275.003 2.547 0 3.819zM94.35 40.73c-.004.72-.005 1.44-.005 2.158v-2.372c.003.067.005.138.005.214zM95.722 39.623h.516c-.252.053-.413.161-.516.358v-.358zM97.803 39.623h3.329c-.907.1-.909.588-.909 2.424v7.425h-.33c-.002-2.878-.003-5.758-.007-8.636 0-.396.314-1.035-.381-1.118-.084-.008-.354.74-.354 1.136l-.007 8.617h-.526l-.001-8.374c0-.238-.014-.475 0-.71.028-.513-.161-.723-.67-.756l-.144-.008zM102.595 39.623h.634v.292c-.105-.198-.304-.276-.634-.292zM106.292 39.623c-1.054.033-1.5-.021-1.684.173v-.173h1.684zM111.673 39.623c-.043 0-.088.002-.136.005-.578.044-1.162.039-1.741.018-.445-.018-.599.196-.573.637.014.206.004.415.004.62l.001 8.569h-.577c0-2.864-.002-5.73-.005-8.593 0-.402-.267-1.162-.322-1.153-.682.113-.375.731-.375 1.13a6185.43 6185.43 0 0 0-.005 8.615h-.565c.002-2.898.005-5.8.01-8.698.002-.798-.154-1.115-.803-1.15h5.087z"/><path d="M114.239 39.623c-.327.024-.525.129-.634.352v9.496h-1.379v-9.58c-.097-.187-.274-.268-.553-.268h2.566zM119.317 39.623c-1.286.053-1.286.459-1.286 2.562v7.286h-.367v-8.654c0-.237.058-.503-.025-.702-.078-.19-.314-.44-.461-.427-.158.014-.375.284-.424.48-.071.305-.023.645-.023.97v8.334h-.556l-.001-8.084c-.002-1.935.257-1.695-1.535-1.765h4.678zM142.2 39.623c-.974.032-1.413-.015-1.603.152v9.697h-1.378v-9.598c-.118-.184-.33-.255-.681-.246-2.608.065-2.114-.35-2.115 2.204-.004 2.547-.005 5.093-.005 7.64h-.53v-8.52c0-.266.051-.553-.025-.792-.063-.197-.28-.339-.429-.505-.168.177-.415.326-.485.54-.087.264-.027.583-.027.88v8.396h-.532v-8.574c0-1.264-.002-1.276-1.165-1.26-1.041.014-1.459-.062-1.625.174v9.66h-1.379v-9.637c-.123-.195-.395-.195-.999-.2-2.035-.01-2.032-.01-2.032 2.124v7.713h-.516c.002-2.867 0-5.732 0-8.6 0-.265.033-.543-.03-.793-.038-.154-.227-.264-.348-.395-.112.136-.281.257-.323.416-.056.22-.018.468-.018.706v8.666h-.562v-8.45c0-1.379-.002-1.379-1.298-1.384-.973-.004-1.347-.006-1.494.38v9.454h-1.377v-9.565c-.109-.191-.32-.271-.684-.278l-.232-.005H142.2zM161.025 39.623v.152c-.009 3.232-.017 6.465-.027 9.697h-14.405v-8.354c0-.296-.012-.592-.002-.886.02-.566-.348-.663-.713-.565-.248.065-.538.305-.634.544-.112.276-.032.64-.032.964v8.297h-.533c-.001-2.864-.005-5.727-.01-8.59-.001-.42.377-1.227-.491-1.208-.78.017-.448.76-.448 1.175-.004 2.874-.005 5.748-.006 8.623h-.567c-.001-2.954-.015-5.91.012-8.866.007-.636-.126-.942-.657-.983h18.513zM88.442 27.167c0 2.92-.004 5.839-.004 8.76v1.089h-2.887c-.002-3.282-.002-6.565-.002-9.849h2.893zM95.722 27.167v9.849h-1.377v-.723c-.007-3.04-.012-6.084-.012-9.126h1.39zM140.597 27.167v9.849h-1.378v-4.23a1.316 1.316 0 0 0-.068-.127 1.06 1.06 0 0 0-.232-.277.486.486 0 0 0-.097-.069 194.296 194.296 0 0 0-2.693-1.476c-.293-.16-.586-.317-.878-.473-.506-.271-1.011-.544-1.517-.81l-.214-.115-.101-.055-.194-.105c-.063-.034-.121-.063-.173-.092-.091-.05-.163-.087-.212-.113l-.042-.023-.028-.014-.002-.002-.01-.005c-.146-.079-.294-.156-.439-.235-.193-.104-.419-.141-.719-.232v8.453h-1.379v-8.99a.67.67 0 0 0-.049-.09c-.222-.363-.657-.581-1.133-.769h11.558z"/><path d="M88.438 21.256v46.962h-2.886l-.001-18.747a9509.693 9509.693 0 0 1 0-12.455c-.002-3.282-.002-6.565-.002-9.849v-5.911h2.89zM95.722 39.623v9.849h-1.377v-2.765c.003-1.272 0-2.544 0-3.819 0-.719.001-1.438.005-2.158 0-.076-.002-.147-.005-.214v-.893h1.377z"/><path d="M94.345 46.707v-3.819c0 1.275.003 2.547 0 3.819zM94.35 40.73c-.004.72-.005 1.44-.005 2.158v-2.372c.003.067.005.138.005.214zM95.722 16.937v22.686h-1.377V16.937h1.377zM95.722 49.471v6.346h-1.377v-6.346h1.377zM104.608 27.167v12.456h-1.379V27.167h1.379zM104.608 18.716v8.451h-1.379v-8.45h1.379zM113.605 27.167v9.849h-1.379v-9.849h1.379zM113.605 18.716v8.451h-1.379v-8.45h1.379z"/><path d="M113.605 37.016v18.801h-1.379V37.016h1.379zM122.601 27.167v9.849h-1.377v-9.849h1.377zM122.601 18.716v8.451h-1.377v-8.45h1.377z"/><path d="M122.601 37.016v18.801h-1.377V37.016h1.377zM131.6 22.175v33.642h-1.379V21.564c.459.198.919.402 1.379.611zM161.048 27.167c-.002 3.284-.008 6.565-.017 9.849h-14.299v-.002h.092l-.092-.051-6.135-3.484v-6.312h.761c1.731.993 3.447 2.038 5.152 3.138.036-.384.079-.63.079-.877.002-.753.002-1.508.002-2.261h14.457zM140.597 26.735v29.082h-1.378V25.97c.46.252.92.505 1.378.766z"/><path d="M147.298 37.283l-.471-.267-.003-.002-.092-.051-6.135-3.484-.108-.062-1.27-.72-.068-.038-6.311-3.585c.049.026.121.063.212.113.052.029.11.058.173.092l.194.105.101.055c1.075.581 3.165 1.713 5.399 2.943l.3.165c.422.23.847.466 1.27.702.036.02.073.039.108.06 2.569 1.425 5.047 2.832 6.135 3.547a9.63 9.63 0 0 1 .239.16c.178.122.289.215.327.267zM137.403 37.002l1.816.002 1.378.001"/><path d="M146.732 37.014h.236l1.462.002M147.298 37.888v2.711H86.993v-2.711h60.305z"/><path d="M88.412 39.836h-1.95v-7.037h1.95v7.037zM148.682 33.49v7.036h-1.95V33.49h1.95zM89.89 92.957h-.472V40.44h.473v52.517zM91.391 92.957h-.472V40.44h.472v52.517zM100.361 92.957h-.472V40.44h.472v52.517zM117.967 92.957h-.472V40.44h.472v52.517zM77.558 27c0 2.92.004 5.839.004 8.759V24.042c-.004.985-.004 1.972-.004 2.958zm-5.903 10.72v1.735h.77c.075-.005.158-.007.248-.005l.252.005h4.637V37.72h-5.907zM77.558 27c0 2.92.004 5.839.004 8.759V24.042c-.004.985-.004 1.972-.004 2.958zM62.771 37.72v1.735h.635c.01-.002.021-.002.032-.002.633-.019 1.093-.035 1.43.002h3.329c.733-.044 1.23-.07 1.565 0h1.893v-2.607h-1.377v.872h-7.507zm8.884 0v1.735h.77c.075-.005.158-.007.248-.005l.252.005h4.637V37.72h-5.907zM77.558 27c0 2.92.004 5.839.004 8.759V24.042c-.004.985-.004 1.972-.004 2.958zM62.771 37.72v1.735h.635c.01-.002.021-.002.032-.002.633-.019 1.093-.035 1.43.002h3.329c.733-.044 1.23-.07 1.565 0h1.893v-2.607h-1.377v.872h-7.507zm8.884 0v1.735h.77c.075-.005.158-.007.248-.005l.252.005h4.637V37.72h-5.907zM77.558 27c0 2.92.004 5.839.004 8.759V24.042c-.004.985-.004 1.972-.004 2.958zM53.775 37.72v1.735h5.639c.075-.003.156-.005.244-.002l.05.002h1.684V37.72h-7.617zm8.997 0v1.735h.634c.01-.002.021-.002.032-.002.633-.019 1.093-.035 1.43.002h3.329c.733-.044 1.23-.07 1.565 0h1.893v-2.607h-1.377v.872h-7.507zm8.883 0v1.735h.77c.075-.005.158-.007.248-.005l.252.005h4.637V37.72h-5.907zM77.558 27c0 2.92.004 5.839.004 8.759V24.042c-.004.985-.004 1.972-.004 2.958zM53.775 37.72v1.735h5.639c.075-.003.156-.005.244-.002l.05.002h1.684V37.72h-7.617zm8.997 0v1.735h.634c.01-.002.021-.002.032-.002.633-.019 1.093-.035 1.43.002h3.329c.733-.044 1.23-.07 1.565 0h1.893v-2.607h-1.377v.872h-7.507zm8.883 0v1.735h.77c.075-.005.158-.007.248-.005l.252.005h4.637V37.72h-5.907zM77.558 27c0 2.92.004 5.839.004 8.759V24.042c-.004.985-.004 1.972-.004 2.958zM53.775 37.72v1.735h5.639c.075-.003.156-.005.244-.002l.05.002h1.684V37.72h-7.617zm8.997 0v1.735h.634c.01-.002.021-.002.032-.002.633-.019 1.093-.035 1.43.002h3.329c.733-.044 1.23-.07 1.565 0h1.893v-2.607h-1.377v.872h-7.507zm8.883 0v1.735h.77c.075-.005.158-.007.248-.005l.252.005h4.637V37.72h-5.907zM77.558 27c0 2.92.004 5.839.004 8.759V24.042c-.004.985-.004 1.972-.004 2.958zM53.775 37.72v1.735h5.639c.075-.003.156-.005.244-.002l.05.002h1.684V37.72h-7.617zm8.997 0v1.735h.634c.01-.002.021-.002.032-.002.633-.019 1.093-.035 1.43.002h3.329c.733-.044 1.23-.07 1.565 0h1.893v-2.607h-1.377v.872h-7.507zm8.883 0v1.735h.77c.075-.005.158-.007.248-.005l.252.005h4.637V37.72h-5.907zM77.558 27c0 2.92.004 5.839.004 8.759V24.042c-.004.985-.004 1.972-.004 2.958zM44.776 37.72v1.735h.916c.395-.007.72-.01.991 0h4.679l.09-.003a2.15 2.15 0 0 1 .31.003h7.652c.075-.003.156-.005.244-.002l.05.002h1.684V37.72h-7.617v-.872h-1.38v.872h-7.619zm17.995 0v1.735h.635c.01-.002.021-.002.032-.002.633-.019 1.093-.035 1.43.002h3.329c.733-.044 1.23-.07 1.565 0h1.893v-2.607h-1.377v.872h-7.507zm8.884 0v1.735h.77c.075-.005.158-.007.248-.005l.252.005h4.637V37.72h-5.907zM77.558 27c0 2.92.004 5.839.004 8.759V24.042c-.004.985-.004 1.972-.004 2.958zM44.776 37.72v1.735h.916c.395-.007.72-.01.991 0h4.679l.09-.003a2.15 2.15 0 0 1 .31.003h7.652c.075-.003.156-.005.244-.002l.05.002h1.684V37.72h-7.617v-.872h-1.38v.872h-7.619zm17.995 0v1.735h.635c.01-.002.021-.002.032-.002.633-.019 1.093-.035 1.43.002h3.329c.733-.044 1.23-.07 1.565 0h1.893v-2.607h-1.377v.872h-7.507zm8.884 0v1.735h.77c.075-.005.158-.007.248-.005l.252.005h4.637V37.72h-5.907zM77.558 27c0 2.92.004 5.839.004 8.759V24.042c-.004.985-.004 1.972-.004 2.958zM44.776 37.72v1.735h.916c.395-.007.72-.01.991 0h4.679l.09-.003a2.15 2.15 0 0 1 .31.003h7.652c.075-.003.156-.005.244-.002l.05.002h1.684V37.72h-7.617v-.872h-1.38v.872h-7.619zm17.995 0v1.735h.635c.01-.002.021-.002.032-.002.633-.019 1.093-.035 1.43.002h3.329c.733-.044 1.23-.07 1.565 0h1.893v-2.607h-1.377v.872h-7.507zm8.884 0v1.735h.77c.075-.005.158-.007.248-.005l.252.005h4.637V37.72h-5.907zM77.558 27c0 2.92.004 5.839.004 8.759V24.042c-.004.985-.004 1.972-.004 2.958zm-7.137 35.759l.589 1.933.257-.01.481-1.974c1.55 1.261 1.489 5.398-.016 6.163l-.53-2.173c-.094.013-.19.025-.284.04-.159.723-.32 1.445-.488 2.2-1.538-1.11-1.526-5.195-.01-6.179zm-1.086 7.18c.399.862.415 1.933.556 2.917.901 6.287.483 12.62.571 18.936.015 1.076.007 1.076 1.127.93.025-.315.073-.654.073-.992.003-4.019-.108-8.042.033-12.055.106-3.004.535-5.995.832-8.99.021-.225.12-.459.232-.655 1.563-2.72 1.364-5.428.027-8.171-.283-.58-.454-1.258-.53-1.912-.413-3.539-.546-7.09-.586-10.643-.01-.921-.015-1.843-.015-2.764v2.764h-1.188a130.374 130.374 0 0 1-.189 6.34v.006a79.787 79.787 0 0 1-.387 4.563c-.055.482-.18.987-.393 1.41-1.388 2.752-1.473 5.477-.163 8.316zM44.776 37.72v1.735h.916c.395-.007.72-.01.991 0h4.679l.09-.003a2.15 2.15 0 0 1 .31.003h7.652c.075-.003.156-.005.244-.002l.05.002h1.684V37.72h-7.617v-.872h-1.38v.872h-7.619zm17.995 0v1.735h.635c.01-.002.021-.002.032-.002.633-.019 1.093-.035 1.43.002h3.329c.733-.044 1.23-.07 1.565 0h1.893v-2.607h-1.377v.872h-7.507zM77.559 27c0 2.92.004 5.839.004 8.759V24.042c-.004.985-.004 1.972-.004 2.958zM44.776 37.72v1.735h.916c.395-.007.72-.01.991 0h4.679l.09-.003a2.15 2.15 0 0 1 .31.003h7.652c.075-.003.156-.005.244-.002l.05.002h1.684V37.72h-7.617v-.872h-1.38v.872h-7.619zM77.558 27c0 2.92.004 5.839.004 8.759V24.042c-.004.985-.004 1.972-.004 2.958zM44.776 37.72v1.735h.916c.395-.007.72-.01.991 0h4.679l.09-.003a2.15 2.15 0 0 1 .31.003h2.013v-2.607h-1.38v.872h-7.619zM77.558 27c0 2.92.004 5.839.004 8.759V24.042c-.004.985-.004 1.972-.004 2.958zm0 0c0 2.92.004 5.839.004 8.759V24.042c-.004.985-.004 1.972-.004 2.958zm0 0c0 2.92.004 5.839.004 8.759V24.042c-.004.985-.004 1.972-.004 2.958zm0 0c0 2.92.004 5.839.004 8.759V24.042c-.004.985-.004 1.972-.004 2.958zm0 0c0 2.92.004 5.839.004 8.759V24.042c-.004.985-.004 1.972-.004 2.958zM35.78 37.72v1.735h8.997v-2.607h-1.378v.872H35.78zM77.56 27c0 2.92.003 5.839.003 8.759V24.042c-.004.985-.004 1.972-.004 2.958zm-41.78 10.72v1.735h8.997v-2.607h-1.378v.872H35.78zM77.56 27c0 2.92.003 5.839.003 8.759V24.042c-.004.985-.004 1.972-.004 2.958zm-41.78 10.72v1.735h8.997v-2.607h-1.378v.872H35.78zM77.56 27c0 2.92.003 5.839.003 8.759V24.042c-.004.985-.004 1.972-.004 2.958zm-41.78 10.72v1.735h8.997v-2.607h-1.378v.872H35.78zM77.56 27c0 2.92.003 5.839.003 8.759V24.042c-.004.985-.004 1.972-.004 2.958zm-41.78 10.72v1.735h8.997v-2.607h-1.378v.872H35.78zM77.56 27c0 2.92.003 5.839.003 8.759V24.042c-.004.985-.004 1.972-.004 2.958zM1.105 12.707c.183.09.354.426.364.657.04 1.003.041 2.01.01 3.014-.017.521.167.815.6 1.024.706.34 1.376.77 2.093 1.078.614.264.78.685.78 1.36-.003 2.386-.003 4.773 0 7.16H19.41c.002-2.497.007-4.994-.015-7.49-.005-.628.17-1.057.734-1.197 2.169-.539 2.89-2.004 2.48-4.26-.16-.874.059-1.407 1.061-1.478.822-.056 1.006-.717.775-2.254h-8.016c.125-.267.153-.41.234-.492 1.6-1.64 2.055-3.633 1.391-5.84C17.37 1.717 15.72.56 13.59.122c-2.445-.5-5.012.585-6.282 2.634-1.3 2.1-1.115 4.646.481 6.634.19.236.382.47.704.868H.181c-.392 1.421-.174 1.907.924 2.45zM35.78 37.72v1.735h8.996v-2.607h-1.378v.872H35.78zM77.558 27c0 2.92.004 5.839.004 8.759V24.042c-.004.985-.004 1.972-.004 2.958zM35.78 37.72v1.735h8.997v-2.607h-1.378v.872H35.78zM77.56 27c0 2.92.003 5.839.003 8.759V24.042c-.004.985-.004 1.972-.004 2.958zm-41.78 10.72v1.735h8.997v-2.607h-1.378v.872H35.78zM77.56 27c0 2.92.003 5.839.003 8.759V24.042c-.004.985-.004 1.972-.004 2.958zm-41.78 10.72v1.735h8.997v-2.607h-1.378v.872H35.78zM77.56 27c0 2.92.003 5.839.003 8.759V24.042c-.004.985-.004 1.972-.004 2.958zm-41.78 10.72v1.735h8.997v-2.607h-1.378v.872H35.78zm0 0v1.735h8.997v-2.607h-1.378v.872H35.78zM77.56 27c0 2.92.003 5.839.003 8.759V24.042c-.004.985-.004 1.972-.004 2.958zm.003 9.848v2.607h.027v-2.607h-.027zM77.558 27c0 2.92.004 5.839.004 8.759V24.042c-.004.985-.004 1.972-.004 2.958zm.004 9.848v2.607h.027v-2.607h-.027zM77.558 27c0 2.92.004 5.839.004 8.759V24.042c-.004.985-.004 1.972-.004 2.958zm.004 9.848v2.607h.027v-2.607h-.027zM77.558 27c0 2.92.004 5.839.004 8.759V24.042c-.004.985-.004 1.972-.004 2.958zm.004 9.848v2.607h.027v-2.607h-.027zm-50.781.872v-1.048c-.091-.118-.13-.295-.125-.538.024-1.06-.024-2.128.034-3.187a.895.895 0 0 1 .09-.328c.02-.043.044-.087.069-.128.066-.11.146-.207.232-.276a.489.489 0 0 1 .097-.07c.391-.22.785-.435 1.18-.652a260.592 260.592 0 0 1 2.391-1.296c.506-.272 1.01-.545 1.517-.81.076-.041.146-.078.214-.116l.101-.055.194-.104.173-.092c.091-.05.163-.087.213-.113l.041-.024.028-.014.002-.002.01-.005.44-.234c.192-.104.418-.142.718-.232l.052-.016c.02.443.048.759.048 1.074.003 1.802.002 3.603.002 5.404 0 .747-.002 1.216-.102 1.51v1.352h-7.62zm-.913 26.974l.252.02.648-2.012c1.548 1.303 1.485 5.404-.027 6.173l-.521-2.184-.285.034c-.163.725-.324 1.451-.492 2.203-1.546-1.088-1.541-5.247-.02-6.14l.445 1.906zm8.57-1.933l.541 1.894c.07-.01.141-.021.213-.03l.547-1.9c1.544 1.087 1.543 5.125.017 6.194-.184-.77-.365-1.517-.546-2.263l-.259.024-.526 2.265c-1.528-1.148-1.507-5.172.013-6.184zm9.536 1.903c.062-.004.125-.007.188-.013l.614-1.954c1.512 1.372 1.482 5.151-.028 6.229l-.546-2.267c-.086.011-.17.02-.257.029l-.525 2.273c-1.551-1.28-1.495-5.381.028-6.164.176.625.35 1.247.526 1.867zm9.05.039l.235-.03.522-1.974c1.506 1.386 1.456 5.212-.033 6.211-.177-.76-.352-1.504-.524-2.25a67.317 67.317 0 0 1-.258-.004l-.556 2.316c-1.548-1.4-1.468-5.336.025-6.177l.59 1.908zm18.631-28.577a3129.046 3129.046 0 0 0 0-17.9v-.007c0-.588.224-.751.727-.78 1.409-.08 2.82-.15 4.22-.318.804-.096.978.205.975 1.006-.005.987-.008 1.974-.008 2.961-.005.984-.007 1.969-.007 2.954-.004.985-.004 1.972-.004 2.958 0 2.92.004 5.839.004 8.759 0 .156.03.324 0 .468v1.493h-5.907v-1.594zm-66.686.722c.001.869.003 1.74.006 2.607v.153l.027 9.696c.02 7.05.04 14.1.063 21.15.022 7.09.063 14.18.06 21.272 0 .828.169 1.115.997 1.106 4.096-.046 8.19-.044 12.285 0 .805.007 1.017-.239 1.015-1.088-.018-14.148-.018-28.292-.015-42.44v-8.353a39.147 39.147 0 0 1 .005-.52c.002-.121 0-.244-.003-.366-.02-.567.349-.663.714-.566.247.066.537.305.634.545.01.024.02.053.026.081.002.002.002.005.002.009a.936.936 0 0 1 .02.096c.008.065.012.132.012.202-.002.19-.029.388-.029.576v8.296c0 14.077 0 28.154.004 42.231 0 .411.053.824.08 1.237.099.003.197.009.295.014.05-.308.137-.616.139-.923.011-2.63.006-5.26.006-7.89 0-11.556-.001-23.113.009-34.669.002-2.864.005-5.727.01-8.589 0-.081-.014-.179-.032-.284-.016-.104-.036-.217-.045-.325a1.15 1.15 0 0 1-.004-.107c0-.276.107-.503.572-.492.023 0 .045.002.066.003a.617.617 0 0 1 .06.007c.018.004.037.005.053.01a.49.49 0 0 1 .174.075.292.292 0 0 1 .09.092c.008.011.017.024.022.038l.006.015a.157.157 0 0 1 .015.04.496.496 0 0 1 .028.145c.009.097-.001.206-.016.314l-.015.11c-.003.026-.008.05-.012.075l-.005.032-.015.144-.003.074.007 8.623c.01 14.086.01 28.174.013 42.26 0 .404.062.81.093 1.213l.352.006c.035-.4.101-.8.101-1.198.007-13.769.005-27.538.005-41.308 0-.324 0-.649.002-.973.002-2.954.015-5.91-.012-8.865v-.008c0-.036 0-.072.002-.107l.001-.07.007-.1a1.174 1.174 0 0 1 .032-.208c.003-.018.008-.034.013-.051a.551.551 0 0 1 .219-.326.7.7 0 0 1 .29-.103 1.633 1.633 0 0 1 .305-.014c.034.001.067.001.1.003.974.032 1.413-.014 1.604.153.137.122.144.358.134.824-.008.242-.02.55-.02.933-.002 2.646.007 5.294-.027 7.939a183.078 183.078 0 0 1-.087 3.934c-.08 2.355-.427 4.701-.69 7.05-.05.45-.207.915-.41 1.32-1.401 2.796-1.523 5.555.056 8.337.257.455.322 1.054.403 1.6 1 6.629.75 13.315.762 19.988v1.206h1.136v-.954c0-2.422-.066-4.848.014-7.267.146-4.396.372-8.79.59-13.182.025-.484.137-1.018.367-1.425 1.514-2.683 1.456-5.36.141-8.098a5.849 5.849 0 0 1-.514-1.829 92.034 92.034 0 0 1-.478-6.434c-.06-1.414-.093-2.83-.113-4.246-.041-2.958-.015-5.913-.015-8.873v-.097c0-.283.037-.49.128-.627.118-.184.33-.255.68-.246.153.003.296.007.429.007.41.003.725-.002.965.005.035 0 .069.002.102.003.021 0 .043.002.063.004.02 0 .038.002.056.004a1.38 1.38 0 0 1 .228.037c.01.002.018.005.028.009a.208.208 0 0 1 .04.014l.028.014a.24.24 0 0 1 .03.016c.01.005.018.012.028.02a.314.314 0 0 1 .083.097l.022.046c.011.03.021.064.028.101l.01.056.008.102c.002.025.003.051.003.078.004.1 0 .22-.003.358-.012.303-.032.705-.032 1.233.004 2.546.005 5.093.005 7.639.01 14.09.004 28.179.009 42.267 0 .405.061.81.093 1.212l.322.003c.035-.374.1-.748.1-1.12.007-10.432.006-20.862.006-31.292v-19.59c0-.115-.01-.236-.013-.352a1.274 1.274 0 0 1 .038-.44c.063-.197.28-.338.43-.505.167.177.415.326.484.54a.36.36 0 0 1 .017.063l.01.046c.018.094.021.193.018.295-.002.157-.018.32-.018.476v8.397c.002 14.102.002 28.206.006 42.307 0 .39.067.78.102 1.168.112-.005.224-.01.336-.018.029-.384.083-.767.083-1.152.004-14.101.004-28.203.005-42.305v-8.575c0-.108 0-.207.002-.297 0-.082.002-.157.005-.225a1.987 1.987 0 0 1 .04-.38.701.701 0 0 1 .063-.16c.01-.015.022-.03.033-.044l.023-.023a.106.106 0 0 1 .027-.02.152.152 0 0 1 .028-.02c.02-.013.042-.022.065-.032a.704.704 0 0 1 .076-.023 1.522 1.522 0 0 1 .19-.028c.034-.004.074-.006.114-.008l.12-.001h.224l.156.001c1.04.015 1.458-.062 1.624.174.095.135.107.372.105.788-.004.233-.009.518-.007.874.012 2.667.037 5.334.005 7.999a139.705 139.705 0 0 1-.103 4.16 90.062 90.062 0 0 1-.49 6.605 5.435 5.435 0 0 1-.502 1.735c-1.334 2.73-1.58 5.438-.03 8.178.176.314.255.709.314 1.08 1.049 6.653.798 13.367.81 20.069 0 .385-.065.789.03 1.145.057.216.366.498.559.494.195-.004.468-.283.556-.51.098-.254.025-.581.028-.877.076-5.196.133-10.393.244-15.589.033-1.534.197-3.066.355-4.593.05-.48.196-.989.423-1.405 1.454-2.676 1.376-5.329.04-8.02a5.053 5.053 0 0 1-.476-1.664 96.951 96.951 0 0 1-.482-6.75 150.331 150.331 0 0 1-.1-4.058c-.039-2.888-.012-5.777-.004-8.667 0-.072 0-.142.002-.206.001-.396.014-.628.102-.765.123-.195.395-.195 1-.198a32.582 32.582 0 0 1 .866.005c.046.002.09.003.133.007.088.005.167.014.242.023.086.012.162.027.23.048a.68.68 0 0 1 .116.043c.024.01.045.023.067.035a.385.385 0 0 1 .068.046.819.819 0 0 1 .053.048.285.285 0 0 1 .025.028c.013.014.025.032.037.048l.036.06c.012.023.024.046.033.073l.014.033a.285.285 0 0 1 .015.048 1.75 1.75 0 0 1 .058.291 1.77 1.77 0 0 1 .013.127c.025.291.025.668.025 1.16v7.713c-.002 14.154-.002 28.306.002 42.458 0 .344.068.688.104 1.03l.309.001c.033-.372.094-.746.096-1.118.005-10.549.003-21.098.003-31.646 0-3.575 0-7.15.002-10.725-.002-2.867 0-5.732 0-8.6 0-.09-.003-.18-.005-.273-.003-.046-.003-.094-.003-.14a2.327 2.327 0 0 1 .008-.2l.011-.092c.005-.03.012-.058.019-.089.038-.153.227-.263.348-.395.111.137.281.257.322.417.01.04.018.083.022.126.002.008.002.017.003.026a.148.148 0 0 1 .002.028c.007.103.002.21-.002.316v.004c-.003.069-.007.138-.007.205v8.667c0 14.1.002 28.2.006 42.302 0 .395.064.79.098 1.186l.366-.017c.03-.405.087-.81.087-1.217.003-14.084.005-28.17.006-42.254v-8.45c0-.158 0-.298.004-.422l.001-.087a4.24 4.24 0 0 1 .017-.296c.003-.03.008-.06.012-.089a1.134 1.134 0 0 1 .03-.13c.004-.015.01-.03.016-.045a.265.265 0 0 1 .022-.048.166.166 0 0 1 .016-.03.218.218 0 0 1 .033-.046c0-.002 0-.002.002-.002a.158.158 0 0 1 .022-.023l.004-.004.029-.023c.01-.009.02-.015.03-.021a.446.446 0 0 1 .131-.058c.07-.022.152-.034.25-.043.025-.002.052-.005.078-.005.161-.01.359-.01.601-.013.972-.003 1.348-.005 1.493.38.054.138.077.326.085.583.009.195.009.43.009.712 0 2.601.073 5.204-.017 7.8l-.013.36c-.019.517-.04 1.035-.064 1.55-.139 3.228-.338 6.45-.527 9.674-.022.394-.188.803-.372 1.152-1.47 2.79-1.684 5.573-.071 8.401.202.357.234.837.3 1.269 1.021 6.627.742 13.313.764 19.985v1.292c1.058.352 1.184.266 1.186-.794.004-4.196-.1-8.396.042-12.587.098-2.885.524-5.757.825-8.633.03-.279.196-.548.322-.806 1.278-2.648 1.206-5.265-.062-7.904-.292-.608-.474-1.316-.553-1.999a87.193 87.193 0 0 1-.476-6.536c-.051-1.356-.081-2.71-.096-4.064-.033-2.956-.002-5.915-.014-8.873v-.09c0-.27.029-.464.11-.602.11-.191.32-.271.684-.278l.232-.006c.395-.007.72-.01.991 0l.226.014c.026.002.051.006.076.01.025 0 .048.005.072.008a1.656 1.656 0 0 1 .318.076.628.628 0 0 1 .164.08.55.55 0 0 1 .114.092l.03.032c.01.01.02.021.029.034l.005.007a.734.734 0 0 1 .091.16.386.386 0 0 1 .019.049.933.933 0 0 1 .05.16l.024.118c.007.032.012.066.015.1l.005.036c.025.188.037.41.042.672l.001.101c.005.24.005.509.005.813v50.677l.268.023c.033-.337.094-.673.094-1.01.005-9.13.005-18.26.005-27.39V40.65c0-.071-.005-.146-.01-.218-.012-.172-.023-.344.035-.484.078-.19.313-.44.461-.427.158.014.375.283.423.48.01.046.019.092.024.138a.796.796 0 0 1 .013.138c.002.018.002.036.002.052l.001.102c-.001.134-.01.267-.013.4a3.641 3.641 0 0 0-.003.14v8.333c0 14.095 0 28.19.003 42.282.002.399.067.798.101 1.198l.354-.003c.033-.404.093-.808.093-1.212.005-14.088.001-28.177.005-42.265l.001-8.084c0-.198-.001-.374-.005-.53l-.001-.09c-.002-.059-.004-.115-.004-.169-.001-.118-.003-.222 0-.313 0-.02 0-.037.002-.055a1.276 1.276 0 0 1 .035-.282l.008-.026a.09.09 0 0 1 .01-.027l.007-.018c.003-.01.01-.02.015-.028a.203.203 0 0 1 .031-.044.115.115 0 0 1 .022-.023s0-.002.002-.002a.288.288 0 0 1 .036-.029c.013-.008.027-.017.043-.024.012-.005.023-.013.038-.016.014-.006.027-.01.042-.014a.053.053 0 0 1 .023-.006 1.861 1.861 0 0 1 .325-.04c.042-.004.085-.006.131-.006.019-.002.039-.002.058-.002.04-.001.082-.003.127-.003l.073-.002c.07-.002.144-.003.224-.007.045-.002.093-.002.14-.003l.154-.006.09-.003a2.15 2.15 0 0 1 .31.003c.326.025.524.13.634.353.076.15.109.354.117.623.002.05.002.102.002.157-.017 2.904.012 5.812-.022 8.716a146.683 146.683 0 0 1-.097 4.178 85.574 85.574 0 0 1-.473 6.401c-.08.68-.258 1.39-.55 1.995-1.324 2.747-1.529 5.437.043 8.173.282.493.282 1.184.372 1.79.99 6.632.664 13.319.707 19.99.007 1.045.045 1.074 1.147.868.015-.294.043-.609.045-.925.003-2.335.058-4.671-.01-7.003-.133-4.563.229-9.088.793-13.602.05-.4.135-.83.325-1.168 1.56-2.773 1.333-5.503-.071-8.249a4.442 4.442 0 0 1-.453-1.488 94.385 94.385 0 0 1-.496-7.14 154.586 154.586 0 0 1-.085-3.82c-.037-2.958-.008-5.915-.01-8.873v-.175c0-.232.03-.408.095-.533.096-.186.273-.268.552-.268.044 0 .088.002.136.006.578.044 1.162.038 1.741.017.445-.017.6.197.573.638-.007.105-.008.211-.007.316.002.102.003.203.003.305l-.001 8.567c0 14.1.002 28.2.013 42.3 0 .388.178.774.274 1.161.093-.391.269-.782.27-1.172.012-14.096.01-28.193.02-42.289 0-2.864.002-5.729.005-8.592a1.423 1.423 0 0 1 .019-.206c-.002-.002-.002-.002 0-.004l.011-.07c0-.008.002-.014.004-.022.008-.042.016-.086.026-.13a3.666 3.666 0 0 1 .103-.368c.005-.017.012-.033.016-.05 0 0 0-.003.002-.005l.053-.145c.005-.01.008-.021.014-.03l.011-.028c.009-.016.015-.032.022-.045a.314.314 0 0 1 .03-.046c.003-.003.006-.005.01-.005h.002a.779.779 0 0 1 .094.021c.013.004.028.007.041.013a.513.513 0 0 1 .195.117c.015.014.026.03.038.047a.38.38 0 0 1 .058.127c.005.027.01.054.013.082.005.054.005.109.002.165-.007.1-.025.203-.04.301l-.01.068c-.01.067-.017.131-.017.19.004 2.872.005 5.742.005 8.615.01 14.148.009 28.296.017 42.444 0 .342.148.686.226 1.027.111-.341.318-.682.318-1.024a21449.682 21449.682 0 0 0-.005-51.234 2.433 2.433 0 0 1 .05-.51c.004-.011.005-.022.008-.033a.563.563 0 0 1 .025-.078c.009-.023.017-.046.029-.067a.113.113 0 0 1 .015-.03v-.002c.008-.02.02-.037.03-.053a.531.531 0 0 1 .102-.115c.015-.012.03-.025.047-.035a.387.387 0 0 1 .081-.048c.013-.008.028-.013.042-.018a.606.606 0 0 1 .12-.037.184.184 0 0 1 .047-.011c.002-.002.005-.002.007-.002a1.236 1.236 0 0 1 .199-.023c.075-.003.156-.005.244-.002l.05.002c1.054.034 1.5-.02 1.684.174V37.72h-7.617v-.872h-1.38v.872h-7.619v-.872h-1.378v.872H35.78v-1.112c-.083-.135-.114-.33-.112-.585.024-1.859 0-3.72.011-5.579.005-.87-.226-1.924.102-2.585a.628.628 0 0 1 .048-.09c.222-.363.657-.582 1.133-.77.367-.145.758-.274 1.094-.439.199-.099.405-.188.612-.273 1.509-.616 3.022-1.231 4.731-1.93l.094-.037V27h1.195c.001-.805.005-1.611.01-2.418 0-.108.031-.244.08-.373.067-.186.177-.356.288-.4 2.355-.896 4.727-1.74 7.33-2.685.034-.01.067-.023.1-.036v2.1c-.002 1.27-.002 2.54-.003 3.812h1.2c-.002-1.778-.005-3.555-.01-5.332 0-.217.026-.387.093-.52.096-.2.278-.317.58-.386 2.083-.475 4.161-.971 6.232-1.494.423-.106.674-.078.805.135.088.14.123.36.12.673A641.67 641.67 0 0 0 61.499 27h1.191c0-2.467-.002-4.932-.008-7.397 0-.22.024-.388.09-.517.097-.199.283-.303.595-.346 2.083-.29 4.163-.604 6.24-.932.317-.05.533-.023.671.103.146.13.204.37.197.744-.036 2.304-.011 4.61-.011 6.913V27c.001 2.978.003 5.957-.012 8.936-.002.237-.053.565-.174.742v1.042h-7.507v2.027c.105-.198.304-.276.635-.292.01-.002.021-.002.032-.002.633-.019 1.093-.035 1.43.002a.778.778 0 0 1 .063.009c.02.002.04.005.058.009.03.003.058.009.084.016a.68.68 0 0 1 .067.018.245.245 0 0 1 .051.016c.003 0 .008 0 .012.003l.026.009c.005.002.01.003.017.007a.85.85 0 0 1 .075.034c.011.007.023.012.034.02a.982.982 0 0 1 .083.059.556.556 0 0 1 .11.12.554.554 0 0 1 .071.13c.004.002.005.005.005.01a.17.17 0 0 1 .015.036c.01.022.017.043.024.066.036.115.06.252.078.414.004.045.008.089.01.137.004.048.008.098.01.149.016.31.016.69.016 1.162v50.762c.106 0 .214 0 .32.002v-1.094c0-14.082-.001-28.163.01-42.245.002-2.878.003-5.757.007-8.635a1.212 1.212 0 0 0-.025-.237l-.015-.101a1.8 1.8 0 0 1-.03-.348c.002-.023.003-.044.007-.065a.639.639 0 0 1 .011-.057v-.002l.02-.056c.009-.018.017-.036.027-.052a.338.338 0 0 1 .12-.117.249.249 0 0 1 .043-.023.752.752 0 0 1 .224-.06h.001c.004 0 .008.002.013.005.002 0 .004.002.005.004a.03.03 0 0 1 .01.01c.002 0 .004.004.005.006.004.003.007.008.012.016l.012.017c.004.01.01.018.014.029.007.009.012.02.017.032.007.01.012.02.017.033.007.015.015.03.021.048l.022.055c.07.175.14.415.179.626.015.092.025.18.025.255l.007 8.617c.01 14.088.01 28.175.013 42.265 0 .402.061.805.094 1.206.107 0 .215-.001.32-.003.032-.41.092-.819.092-1.228.005-14.08.007-28.16.007-42.24l.001-8.375c0-.166.007-.33.007-.498l-.001-.049c0-.055-.002-.11-.006-.163-.028-.512.161-.723.67-.755.049-.003.097-.005.144-.009.733-.044 1.23-.07 1.565 0 .252.053.413.162.516.358v-.358h1.377v.893c.03-.591.223-.85.77-.893.075-.005.158-.007.248-.005l.252.005c.16.004.303.007.433.013.027.001.053.001.078.003l.11.007a3.39 3.39 0 0 1 .44.059.55.55 0 0 1 .07.02.612.612 0 0 1 .175.077c.033.02.065.043.091.07.015.014.03.027.042.045a.53.53 0 0 1 .088.151.287.287 0 0 1 .02.051l.018.059c.011.037.02.076.026.12a.741.741 0 0 1 .012.068c.005.023.007.048.01.072.007.05.012.103.015.161.018.261.018.593.018 1.018v7.855c-.002 14.134-.002 28.27.003 42.405 0 .36.074.719.113 1.079.108-.005.218-.013.326-.02.03-.382.084-.767.084-1.15.004-14.105.004-28.208.004-42.314v-8.656c0-.07-.005-.144-.01-.217-.014-.17-.027-.343.03-.483.076-.19.302-.43.46-.429.162.002.4.24.466.427a.752.752 0 0 1 .038.199 1.917 1.917 0 0 1-.002.287c-.003.1-.012.205-.012.305v8.567c-.001 14.104-.001 28.21.002 42.314.002.388.068.778.105 1.168l.343-.021c.025-.413.073-.828.073-1.24.004-14.074.004-28.148.004-42.221v-8.307c0-.186-.019-.38-.019-.566 0-.14.01-.274.045-.402.06-.214.309-.367.475-.547.153.193.366.365.44.588.01.03.018.062.023.094.016.085.02.175.018.267-.003.123-.015.249-.018.371-.002.02-.002.039-.002.059v8.443l.002 18.746c0 7.81 0 15.617.002 23.427 0 1.336 0 1.35 1.25 1.334 1.866-.023 1.629.284 1.63-1.73.002-7.678.004-15.354.004-23.03.002-6.249.002-12.499.002-18.747a11547.484 11547.484 0 0 0 0-12.456L80.45 27V12.809c0-.258-.026-.517-.048-.94-15.617.394-30.512 3.386-44.624 9.527A111.32 111.32 0 0 0 24.642 27h.763v6.018c.036-.02.07-.042.107-.063v.295c.002 1.22.009 2.194-.011 3.167a.45.45 0 0 1-.096.232v1.072h-6.136v-.872h-14.3zm72.593 0v2.607h.027v-2.607h-.027zM77.558 27c0 2.92.004 5.839.004 8.759V24.042c-.004.985-.004 1.972-.004 2.958zm.004 9.848v2.607h.027v-2.607h-.027zM77.558 27c0 2.92.004 5.839.004 8.759V24.042c-.004.985-.004 1.972-.004 2.958zm.004 9.848v2.607h.027v-2.607h-.027zM77.558 27c0 2.92.004 5.839.004 8.759V24.042c-.004.985-.004 1.972-.004 2.958zm.004 9.848v2.607h.027v-2.607h-.027zM77.558 27c0 2.92.004 5.839.004 8.759V24.042c-.004.985-.004 1.972-.004 2.958zm0 0c0 2.92.004 5.839.004 8.759V24.042c-.004.985-.004 1.972-.004 2.958zM35.78 37.72v1.735h8.997v-2.607h-1.378v.872H35.78zm0 0v1.735h8.997v-2.607h-1.378v.872H35.78zM77.56 27c0 2.92.003 5.839.003 8.759V24.042c-.004.985-.004 1.972-.004 2.958zm-41.78 10.72v1.735h8.997v-2.607h-1.378v.872H35.78zM77.56 27c0 2.92.003 5.839.003 8.759V24.042c-.004.985-.004 1.972-.004 2.958zm-41.78 10.72v1.735h8.997v-2.607h-1.378v.872H35.78zM77.56 27c0 2.92.003 5.839.003 8.759V24.042c-.004.985-.004 1.972-.004 2.958zm-41.78 10.72v1.735h8.997v-2.607h-1.378v.872H35.78zM77.56 27c0 2.92.003 5.839.003 8.759V24.042c-.004.985-.004 1.972-.004 2.958zm-41.78 10.72v1.735h8.997v-2.607h-1.378v.872H35.78zM77.56 27c0 2.92.003 5.839.003 8.759V24.042c-.004.985-.004 1.972-.004 2.958zm-41.78 10.72v1.735h8.997v-2.607h-1.378v.872H35.78zM77.56 27c0 2.92.003 5.839.003 8.759V24.042c-.004.985-.004 1.972-.004 2.958zm-41.78 10.72v1.735h8.997v-2.607h-1.378v.872H35.78zM77.56 27c0 2.92.003 5.839.003 8.759V24.042c-.004.985-.004 1.972-.004 2.958zm-41.78 10.72v1.735h8.997v-2.607h-1.378v.872H35.78zM77.56 27c0 2.92.003 5.839.003 8.759V24.042c-.004.985-.004 1.972-.004 2.958zm-41.78 10.72v1.735h8.997v-2.607h-1.378v.872H35.78zM77.56 27c0 2.92.003 5.839.003 8.759V24.042c-.004.985-.004 1.972-.004 2.958zm-41.78 10.72v1.735h8.997v-2.607h-1.378v.872H35.78zM77.56 27c0 2.92.003 5.839.003 8.759V24.042c-.004.985-.004 1.972-.004 2.958zm-41.78 10.72v1.735h8.997v-2.607h-1.378v.872H35.78zM77.56 27c0 2.92.003 5.839.003 8.759V24.042c-.004.985-.004 1.972-.004 2.958zm0 0c0 2.92.003 5.839.003 8.759V24.042c-.004.985-.004 1.972-.004 2.958zm0 0c0 2.92.003 5.839.003 8.759V24.042c-.004.985-.004 1.972-.004 2.958zm0 0c0 2.92.003 5.839.003 8.759V24.042c-.004.985-.004 1.972-.004 2.958zM44.775 37.72v1.735h.916c.395-.007.72-.01.991 0h4.679l.09-.003a2.15 2.15 0 0 1 .31.003h2.013v-2.607h-1.38v.872h-7.619zM77.558 27c0 2.92.004 5.839.004 8.759V24.042c-.004.985-.004 1.972-.004 2.958zM44.776 37.72v1.735h.916c.395-.007.72-.01.991 0h4.679l.09-.003a2.15 2.15 0 0 1 .31.003h7.652c.075-.003.156-.005.244-.002l.05.002h1.684V37.72h-7.617v-.872h-1.38v.872h-7.619zM77.558 27c0 2.92.004 5.839.004 8.759V24.042c-.004.985-.004 1.972-.004 2.958zM44.776 37.72v1.735h.916c.395-.007.72-.01.991 0h4.679l.09-.003a2.15 2.15 0 0 1 .31.003h7.652c.075-.003.156-.005.244-.002l.05.002h1.684V37.72h-7.617v-.872h-1.38v.872h-7.619zM77.558 27c0 2.92.004 5.839.004 8.759V24.042c-.004.985-.004 1.972-.004 2.958zM62.771 37.72v1.735h.635c.01-.002.021-.002.032-.002.633-.019 1.093-.035 1.43.002h3.329c.733-.044 1.23-.07 1.565 0h1.893v-2.607h-1.377v.872h-7.507zm-17.995 0v1.735h.916c.395-.007.72-.01.991 0h4.679l.09-.003a2.15 2.15 0 0 1 .31.003h7.652c.075-.003.156-.005.244-.002l.05.002h1.684V37.72h-7.617v-.872h-1.38v.872h-7.619zM77.558 27c0 2.92.004 5.839.004 8.759V24.042c-.004.985-.004 1.972-.004 2.958zm-5.903 10.72v1.735h.77c.075-.005.158-.007.248-.005l.252.005h4.637V37.72h-5.907zm-8.883 0v1.735h.634c.01-.002.021-.002.032-.002.633-.019 1.093-.035 1.43.002h3.329c.733-.044 1.23-.07 1.565 0h1.893v-2.607h-1.377v.872h-7.507zm-17.996 0v1.735h.916c.395-.007.72-.01.991 0h4.679l.09-.003a2.15 2.15 0 0 1 .31.003h7.652c.075-.003.156-.005.244-.002l.05.002h1.684V37.72h-7.617v-.872h-1.38v.872h-7.619zM77.558 27c0 2.92.004 5.839.004 8.759V24.042c-.004.985-.004 1.972-.004 2.958zm-5.903 10.72v1.735h.77c.075-.005.158-.007.248-.005l.252.005h4.637V37.72h-5.907zm-8.883 0v1.735h.634c.01-.002.021-.002.032-.002.633-.019 1.093-.035 1.43.002h3.329c.733-.044 1.23-.07 1.565 0h1.893v-2.607h-1.377v.872h-7.507zm-17.996 0v1.735h.916c.395-.007.72-.01.991 0h4.679l.09-.003a2.15 2.15 0 0 1 .31.003h7.652c.075-.003.156-.005.244-.002l.05.002h1.684V37.72h-7.617v-.872h-1.38v.872h-7.619zM77.558 27c0 2.92.004 5.839.004 8.759V24.042c-.004.985-.004 1.972-.004 2.958zm-5.903 10.72v1.735h.77c.075-.005.158-.007.248-.005l.252.005h4.637V37.72h-5.907zm-8.883 0v1.735h.634c.01-.002.021-.002.032-.002.633-.019 1.093-.035 1.43.002h3.329c.733-.044 1.23-.07 1.565 0h1.893v-2.607h-1.377v.872h-7.507zm-17.996 0v1.735h.916c.395-.007.72-.01.991 0h4.679l.09-.003a2.15 2.15 0 0 1 .31.003h7.652c.075-.003.156-.005.244-.002l.05.002h1.684V37.72h-7.617v-.872h-1.38v.872h-7.619zM77.558 27c0 2.92.004 5.839.004 8.759V24.042c-.004.985-.004 1.972-.004 2.958zm-5.903 10.72v1.735h.77c.075-.005.158-.007.248-.005l.252.005h4.637V37.72h-5.907zm-8.883 0v1.735h.634c.01-.002.021-.002.032-.002.633-.019 1.093-.035 1.43.002h3.329c.733-.044 1.23-.07 1.565 0h1.893v-2.607h-1.377v.872h-7.507zm-8.997 0v1.735h5.639c.075-.003.156-.005.244-.002l.05.002h1.684V37.72h-7.617zM77.558 27c0 2.92.004 5.839.004 8.759V24.042c-.004.985-.004 1.972-.004 2.958zm-5.903 10.72v1.735h.77c.075-.005.158-.007.248-.005l.252.005h4.637V37.72h-5.907zm-8.883 0v1.735h.634c.01-.002.021-.002.032-.002.633-.019 1.093-.035 1.43.002h3.329c.733-.044 1.23-.07 1.565 0h1.893v-2.607h-1.377v.872h-7.507zm-8.997 0v1.735h5.639c.075-.003.156-.005.244-.002l.05.002h1.684V37.72h-7.617zM77.558 27c0 2.92.004 5.839.004 8.759V24.042c-.004.985-.004 1.972-.004 2.958zm-5.903 10.72v1.735h.77c.075-.005.158-.007.248-.005l.252.005h4.637V37.72h-5.907zm-8.883 0v1.735h.634c.01-.002.021-.002.032-.002.633-.019 1.093-.035 1.43.002h3.329c.733-.044 1.23-.07 1.565 0h1.893v-2.607h-1.377v.872h-7.507zm-8.997 0v1.735h5.639c.075-.003.156-.005.244-.002l.05.002h1.684V37.72h-7.617zM77.558 27c0 2.92.004 5.839.004 8.759V24.042c-.004.985-.004 1.972-.004 2.958zm-5.903 10.72v1.735h.77c.075-.005.158-.007.248-.005l.252.005h4.637V37.72h-5.907zm-8.883 0v1.735h.634c.01-.002.021-.002.032-.002.633-.019 1.093-.035 1.43.002h3.329c.733-.044 1.23-.07 1.565 0h1.893v-2.607h-1.377v.872h-7.507zM77.558 27c0 2.92.004 5.839.004 8.759V24.042c-.004.985-.004 1.972-.004 2.958zm-5.903 10.72v1.735h.77c.075-.005.158-.007.248-.005l.252.005h4.637V37.72h-5.907zm-8.883 0v1.735h.634c.01-.002.021-.002.032-.002.633-.019 1.093-.035 1.43.002h3.329c.733-.044 1.23-.07 1.565 0h1.893v-2.607h-1.377v.872h-7.507zM77.558 27c0 2.92.004 5.839.004 8.759V24.042c-.004.985-.004 1.972-.004 2.958zm-5.903 10.72v1.735h.77c.075-.005.158-.007.248-.005l.252.005h4.637V37.72h-5.907zM77.558 27c0 2.92.004 5.839.004 8.759V24.042c-.004.985-.004 1.972-.004 2.958zm-5.903 10.72v1.735h.77c.075-.005.158-.007.248-.005l.252.005h4.637V37.72h-5.907zm-8.883 0v1.735h.634c.01-.002.021-.002.032-.002.633-.019 1.093-.035 1.43.002h3.329c.733-.044 1.23-.07 1.565 0h1.893v-2.607h-1.377v.872h-7.507z"/><path d="M61.42 62.759l.591 1.93.23-.01.532-1.954c1.529 1.264 1.47 5.33-.04 6.15l-.524-2.18-.27.035c-.17.721-.338 1.442-.51 2.185-1.544-1.03-1.54-5.146-.009-6.156zm-1.065 7.156c.23.48.309 1.06.39 1.605 1.017 6.718.733 13.492.764 20.253.001.313.01.677.157.92.085.136.495.159.689.067.16-.075.307-.392.314-.607.031-1.151.008-2.303.02-3.455.033-3.751.002-7.504.139-11.252.078-2.178.421-4.347.663-6.518a2.41 2.41 0 0 1 .276-.91c1.572-2.726 1.354-5.43.015-8.168-.284-.58-.458-1.258-.533-1.91a88.365 88.365 0 0 1-.477-6.785v-13.7h-1.38v14.129a94.028 94.028 0 0 1-.491 6.615c-.056.512-.19 1.049-.42 1.497-1.402 2.725-1.46 5.444-.126 8.219zM72.925 39.455c1.65.038 1.646.089 1.646 1.994v7.855h.53v-8.656c0-.236-.06-.5.02-.7.076-.19.302-.43.46-.429.162.002.4.24.466.427.081.234.024.525.024.79v8.568h.527v-8.307c0-.324-.057-.668.026-.968.06-.214.309-.367.475-.547.153.193.367.365.44.588.01.03.018.062.023.094v.638c-.002.02-.002.039-.002.059v8.443h2.89v-9.849h-7.525zM71.655 39.455v.893c.03-.591.223-.85.77-.893h-.77zM71.67 49.304a257.26 257.26 0 0 1-.015-2.764v2.764h.015zM71.655 46.54v-3.819c0 1.274-.003 2.546 0 3.819z"/><path d="M71.65 40.563c.004.719.005 1.439.005 2.158v-2.373a4.018 4.018 0 0 0-.005.215zM70.278 39.455h-.516c.252.054.413.162.516.358v-.358zM68.197 39.455h-3.33c.908.101.91.589.91 2.424v7.425h.33c.002-2.878.003-5.757.007-8.635 0-.397-.314-1.035.382-1.118.082-.01.353.739.353 1.136l.007 8.617h.526l.001-8.375c0-.237.014-.474 0-.71-.028-.512.161-.723.67-.755.049-.003.097-.005.144-.009zM63.406 39.455h-.634v.293c.104-.199.303-.277.634-.293zM59.708 39.455c1.053.034 1.5-.02 1.684.174v-.174h-1.684zM54.327 39.455c.044 0 .088.002.136.006.578.044 1.162.038 1.741.017.445-.017.6.197.573.638-.013.206-.004.415-.004.62l-.001 8.568h.577c0-2.863.002-5.729.005-8.592 0-.403.268-1.163.322-1.154.682.114.375.732.375 1.13.004 2.873.005 5.743.005 8.616h.565c-.002-2.899-.005-5.8-.01-8.699-.002-.797.154-1.114.803-1.15h-5.087zM51.762 39.455c.326.025.524.13.634.353v9.496h1.379v-9.581c.096-.186.273-.268.552-.268h-2.565zM46.683 39.455c1.286.054 1.286.46 1.286 2.563v7.286h.367V40.65c0-.238-.058-.504.025-.702.078-.19.313-.44.461-.427.158.014.375.283.423.48.072.305.024.645.024.97v8.333h.556l.001-8.084c.002-1.935-.257-1.694 1.536-1.765h-4.679zM23.8 39.455c.974.032 1.413-.014 1.604.153v9.696h1.377v-9.597c.118-.184.33-.255.68-.246 2.61.065 2.115-.351 2.116 2.204.004 2.546.005 5.093.005 7.64h.53v-8.52c0-.266-.051-.554.025-.793.063-.197.28-.338.43-.505.167.177.415.326.484.54.087.265.027.584.027.88v8.397h.533V40.73c0-1.263.001-1.276 1.165-1.26 1.04.015 1.458-.062 1.624.174v9.661h1.38v-9.638c.122-.195.394-.195.998-.198 2.035-.01 2.032-.01 2.032 2.122v7.714h.516c-.002-2.867 0-5.732 0-8.6 0-.265-.033-.543.03-.794.038-.153.227-.263.348-.395.111.137.281.257.322.417.057.22.018.468.018.705v8.667h.563v-8.45c0-1.38.002-1.38 1.298-1.385.972-.003 1.348-.005 1.494.38v9.455h1.377V39.74c.11-.191.32-.271.684-.278l.233-.006H23.8zM4.975 39.455v.153l.027 9.696h14.405v-8.353c0-.296.012-.592.002-.886-.02-.567.349-.663.714-.566.247.066.537.305.634.545.11.276.031.64.031.964v8.296h.533c.002-2.863.005-5.727.01-8.589.002-.42-.377-1.228.491-1.208.78.018.448.76.448 1.174l.007 8.623h.566c.002-2.954.015-5.91-.012-8.865-.007-.636.126-.943.657-.984H4.975zM77.558 27c0 2.92.004 5.839.004 8.759v1.09h2.888l.001-9.85h-2.892zM70.278 27v9.848h1.377v-.722c.007-3.041.012-6.084.012-9.126h-1.389zM25.404 27v9.848h1.377v-4.23c.02-.042.043-.086.068-.127.066-.11.146-.207.232-.276a.493.493 0 0 1 .097-.07 211.813 211.813 0 0 1 2.693-1.476c.292-.16.586-.316.878-.473.506-.27 1.01-.544 1.517-.81.076-.04.146-.077.214-.115l.101-.055.194-.104.173-.092c.091-.05.163-.087.213-.113l.041-.024.028-.014.002-.001.01-.006.44-.234c.192-.104.418-.142.718-.232v8.452h1.38V27.86a.628.628 0 0 1 .048-.09c.222-.363.657-.581 1.133-.77H25.404z"/><path d="M77.562 21.088V68.05h2.886c.002-6.248.002-12.498.002-18.746a11547.484 11547.484 0 0 0 0-12.456L80.45 27v-5.912h-2.89zM70.278 39.455v9.85h1.377V46.54c-.003-1.273 0-2.545 0-3.819 0-.72-.001-1.439-.005-2.158 0-.077.002-.147.005-.215v-.893h-1.377z"/><path d="M71.655 46.54v-3.819c0 1.274-.003 2.546 0 3.819z"/><path d="M71.65 40.563c.004.719.005 1.439.005 2.158v-2.373a4.018 4.018 0 0 0-.005.215zM70.278 16.77v22.685h1.377V16.77h-1.377zM70.278 49.304v6.346h1.377v-6.346h-1.377zM61.392 27v12.455h1.38V27h-1.38zM61.392 18.549v8.45h1.38v-8.45h-1.38zM52.396 27v9.848h1.379V27h-1.38zM52.396 18.549v8.45h1.379v-8.45h-1.38zM52.396 36.848V55.65h1.379V36.848h-1.38zM43.398 27v9.848h1.378V27h-1.378zM43.398 18.549v8.45h1.378v-8.45h-1.378zM43.398 36.848V55.65h1.378V36.848h-1.378zM34.4 22.008V55.65h1.38V21.397a78.6 78.6 0 0 0-1.38.61zM4.952 27c.002 3.283.008 6.565.017 9.848h14.299v-.001h-.091l.09-.052 6.137-3.484V27h-.762c-1.731.992-3.447 2.037-5.152 3.138-.036-.385-.08-.63-.08-.877L19.41 27H4.952zM25.404 26.567V55.65h1.377V25.802c-.46.251-.92.505-1.377.765z"/><path d="M18.702 37.116l.471-.268.004-.001.09-.052 6.137-3.484.107-.062 1.27-.719.068-.039 6.312-3.584c-.05.026-.122.063-.213.113l-.172.092-.195.104-.101.055a847.1 847.1 0 0 0-5.399 2.944l-.3.165c-.421.23-.846.466-1.27.701l-.107.06c-2.57 1.425-5.047 2.832-6.136 3.548a8.85 8.85 0 0 0-.236.158l-.003.001c-.178.123-.289.215-.327.268zM25.404 36.838l1.377-.002 1.816-.002"/><path d="M17.57 36.848l1.462-.001h.236M18.702 37.72v2.712h60.305V37.72H18.702z"/><path d="M77.588 39.668h1.95v-7.037h-1.95v7.037zM17.318 33.322v7.037h1.95v-7.037h-1.95zM76.11 92.79h.472V40.272h-.473V92.79zM74.609 92.79h.472V40.272h-.472V92.79zM65.639 92.79h.472V40.272h-.472V92.79zM48.033 92.79h.472V40.272h-.472V92.79z"/><path d="M17.828 90.28v2.549h62.624V90.28H17.828z"/></g><defs><clipPath id="clip0"><path fill="#fff" d="M0 0h166v93H0z"/></clipPath></defs></svg>